<svg
            :width="width"
            :height="height"
            viewBox="0 0 366 36"
            fill="none"
            xmlns="http://www.w3.org/2000/svg"
        >
            <path
                d="M1.52412 35.1591C1.06864 35.1591 0.700746 35.1066 0.420448 35.0015C0.140149 34.9314 0 34.7912 0 34.581C0 34.1606 0.578115 33.8453 1.73435 33.635C3.06576 33.3898 4.08184 32.9869 4.78259 32.4263C5.48334 31.8657 5.83371 30.9723 5.83371 29.746V5.99124C5.83371 4.76496 5.57093 3.88905 5.04537 3.3635C4.55485 2.83796 3.64388 2.45256 2.31246 2.2073C1.15623 1.99708 0.578115 1.64672 0.578115 1.15621C0.578115 0.945987 0.718265 0.805841 0.998563 0.735766C1.27886 0.630656 1.64675 0.578101 2.10224 0.578101C3.04824 0.578101 3.81907 0.59562 4.4147 0.630658C5.04537 0.665694 5.641 0.70073 6.2016 0.735766C6.7622 0.735766 7.44543 0.735766 8.25128 0.735766H21.2852C21.3552 0.735766 21.6706 0.70073 22.2312 0.630658C22.8268 0.525548 23.1947 0.472993 23.3348 0.472993C23.51 0.472993 23.6327 0.578102 23.7027 0.78832C23.8078 0.963503 23.8604 1.10365 23.8604 1.20876C23.8954 2.32993 23.9655 3.27591 24.0706 4.04672C24.2108 4.81752 24.2808 5.64088 24.2808 6.51679C24.2808 6.86715 24.1933 7.14745 24.0181 7.35766C23.8429 7.53285 23.6852 7.62044 23.5451 7.62044C23.3699 7.62044 23.1246 7.44525 22.8093 7.09489C22.529 6.74453 22.3538 6.4292 22.2837 6.1489C22.2136 5.72847 22.0735 5.23796 21.8633 4.67737C21.6881 4.08175 21.3377 3.55621 20.8122 3.10073C20.3216 2.64526 19.5508 2.41752 18.4997 2.41752H11.5623C11.1068 2.41752 10.7389 2.61022 10.4586 2.99562C10.1783 3.38102 10.0382 3.80146 10.0382 4.25694V13.454C10.0382 14.2949 10.0732 14.9431 10.1433 15.3985C10.2134 15.854 10.3886 16.0818 10.6689 16.0818C10.7389 16.0818 10.7915 16.0818 10.8265 16.0818C10.8616 16.0818 10.8966 16.0642 10.9316 16.0292C11.5623 15.819 12.3156 15.6263 13.1915 15.4511C14.1025 15.2409 15.2237 15.1358 16.5551 15.1358C19.7435 15.1358 22.2837 15.9766 24.1757 17.6584C26.0677 19.3051 27.0138 21.6526 27.0138 24.7007C27.0138 26.6277 26.6984 28.1518 26.0677 29.273C25.4721 30.3942 24.7538 31.2526 23.913 31.8482C23.1071 32.4438 22.3888 32.9343 21.7582 33.3197C20.707 33.9504 19.4807 34.4058 18.0792 34.6861C16.6778 34.9664 15.1011 35.1066 13.3492 35.1066C12.9988 35.1066 12.4733 35.0715 11.7725 35.0015C11.0718 34.9314 10.301 34.8613 9.46007 34.7912C8.61917 34.7212 7.81332 34.6861 7.0425 34.6861C6.30671 34.6861 5.71108 34.7212 5.25559 34.7912C4.80011 34.8613 4.29207 34.9314 3.73147 35.0015C3.20591 35.1066 2.47013 35.1591 1.52412 35.1591ZM14.085 32.9518C15.4514 32.9518 16.7478 32.6015 17.9741 31.9007C19.2355 31.2 20.2691 30.254 21.0749 29.0628C21.8808 27.8365 22.2837 26.4701 22.2837 24.9635C22.2837 23.5971 22.056 22.4759 21.6005 21.6C21.145 20.6891 20.6194 19.9533 20.0238 19.3927C19.4282 18.8321 18.8851 18.4292 18.3946 18.1839C17.9391 17.9037 17.2383 17.6234 16.2923 17.3431C15.3814 17.0277 14.2602 16.8701 12.9288 16.8701C12.1579 16.8701 11.4747 17.0102 10.8791 17.2905C10.3185 17.5358 10.0382 18.0263 10.0382 18.762V29.2204C10.0382 30.4117 10.3886 31.3401 11.0893 32.0058C11.7901 32.6365 12.7886 32.9518 14.085 32.9518Z"
                fill="currentColor"
            />
            <path
                d="M49.2281 35.6321C46.9156 35.6321 44.7083 35.2292 42.606 34.4234C40.5038 33.5825 38.6468 32.4088 37.0351 30.9022C35.4234 29.3606 34.1445 27.5387 33.1985 25.4365C32.2525 23.2993 31.7795 20.9343 31.7795 18.3416C31.7795 15.9591 32.1649 13.6818 32.9357 11.5095C33.7066 9.30219 34.8453 7.34015 36.3519 5.62336C37.8585 3.90657 39.733 2.54015 41.9754 1.52409C44.2178 0.508029 46.793 0 49.7011 0C52.0135 0 54.2209 0.420438 56.3231 1.26131C58.4254 2.06715 60.2823 3.24088 61.8941 4.78248C63.5058 6.28905 64.7846 8.11095 65.7307 10.2482C66.6767 12.3504 67.1497 14.6978 67.1497 17.2905C67.1497 19.638 66.7643 21.9153 65.9934 24.1226C65.2226 26.3299 64.0839 28.292 62.5773 30.0088C61.0707 31.7256 59.1962 33.092 56.9538 34.108C54.7114 35.1241 52.1362 35.6321 49.2281 35.6321ZM50.0164 33.5299C52.7143 33.5299 54.9567 32.9693 56.7436 31.8482C58.5305 30.692 59.8619 29.0978 60.7378 27.0657C61.6488 24.9985 62.1043 22.5985 62.1043 19.8657C62.1043 17.4482 61.824 15.1708 61.2634 13.0336C60.7028 10.8964 59.8619 9.0219 58.7407 7.41022C57.6546 5.7635 56.2881 4.48467 54.6413 3.57372C52.9946 2.66277 51.0675 2.2073 48.8602 2.2073C46.2324 2.2073 44.025 2.76788 42.2381 3.88905C40.4512 5.01022 39.1023 6.58686 38.1913 8.61898C37.2804 10.6161 36.8249 12.981 36.8249 15.7139C36.8249 18.1664 37.0877 20.4613 37.6132 22.5985C38.1738 24.7358 38.9972 26.6277 40.0833 28.2745C41.2045 29.9212 42.5885 31.2175 44.2353 32.1635C45.882 33.0745 47.8091 33.5299 50.0164 33.5299Z"
                fill="currentColor"
            />
            <path
                d="M72.0213 35.1591C71.5659 35.1591 71.198 35.1066 70.9177 35.0015C70.6374 34.9314 70.4972 34.7912 70.4972 34.581C70.4972 34.1606 71.0753 33.8453 72.2316 33.635C73.563 33.3898 74.5791 32.9869 75.2798 32.4263C75.9806 31.8657 76.3309 30.9723 76.3309 29.746V5.99124C76.3309 4.76496 76.0682 3.88905 75.5426 3.3635C75.0521 2.83796 74.1411 2.45256 72.8097 2.2073C72.2141 2.10219 71.7761 1.96204 71.4958 1.78686C71.2155 1.61168 71.0753 1.40146 71.0753 1.15621C71.0753 0.945987 71.2155 0.805841 71.4958 0.735766C71.7761 0.630656 72.144 0.578101 72.5995 0.578101C73.5455 0.578101 74.3163 0.59562 74.9119 0.630658C75.5426 0.665694 76.1382 0.70073 76.6988 0.735766C77.2945 0.735766 77.9952 0.735766 78.8011 0.735766H94.0423C94.1824 0.735766 94.4277 0.718248 94.7781 0.683212C95.1635 0.613138 95.3737 0.578101 95.4087 0.578101C95.5839 0.578101 95.7766 0.613138 95.9869 0.683212C96.2321 0.753284 96.3548 0.875912 96.3548 1.05109C96.3898 2.13723 96.4248 3.29343 96.4599 4.51971C96.5299 5.71095 96.565 6.76204 96.565 7.67299C96.565 7.81314 96.5124 7.97081 96.4073 8.14599C96.3022 8.32117 96.162 8.40876 95.9869 8.40876C95.8117 8.40876 95.654 8.32117 95.5139 8.14599C95.4087 7.93577 95.3212 7.74307 95.2511 7.56788C95.0058 6.76204 94.7606 6.00876 94.5153 5.30803C94.3051 4.6073 93.9372 4.0292 93.4116 3.57372C93.0262 3.18832 92.5357 2.90803 91.94 2.73285C91.3444 2.52263 90.5911 2.41752 89.6801 2.41752H82.7428C81.9369 2.41752 81.3588 2.68029 81.0084 3.20584C80.6931 3.73139 80.5354 4.55475 80.5354 5.67591V29.746C80.5354 30.9723 80.9033 31.8657 81.6391 32.4263C82.3749 32.9869 83.391 33.3898 84.6873 33.635C85.283 33.7402 85.7209 33.8628 86.0012 34.0029C86.2815 34.1431 86.4217 34.3358 86.4217 34.581C86.4217 34.7912 86.2815 34.9314 86.0012 35.0015C85.7209 35.1066 85.353 35.1591 84.8976 35.1591C83.9515 35.1591 83.1632 35.1241 82.5325 35.054C81.9369 35.019 81.3588 34.9839 80.7982 34.9489C80.2376 34.9139 79.5544 34.8964 78.7485 34.8964C77.8726 34.8964 77.1018 34.9139 76.4361 34.9489C75.8054 34.9839 75.1397 35.019 74.4389 35.054C73.7732 35.1241 72.9674 35.1591 72.0213 35.1591Z"
                fill="currentColor"
            />
            <path
                d="M115.436 35.6321C113.124 35.6321 110.916 35.2292 108.814 34.4234C106.712 33.5825 104.855 32.4088 103.243 30.9022C101.632 29.3606 100.353 27.5387 99.4067 25.4365C98.4607 23.2993 97.9877 20.9343 97.9877 18.3416C97.9877 15.9591 98.3731 13.6818 99.1439 11.5095C99.9147 9.30219 101.053 7.34015 102.56 5.62336C104.067 3.90657 105.941 2.54015 108.184 1.52409C110.426 0.508029 113.001 0 115.909 0C118.222 0 120.429 0.420438 122.531 1.26131C124.634 2.06715 126.491 3.24088 128.102 4.78248C129.714 6.28905 130.993 8.11095 131.939 10.2482C132.885 12.3504 133.358 14.6978 133.358 17.2905C133.358 19.638 132.972 21.9153 132.202 24.1226C131.431 26.3299 130.292 28.292 128.785 30.0088C127.279 31.7256 125.404 33.092 123.162 34.108C120.92 35.1241 118.344 35.6321 115.436 35.6321ZM116.225 33.5299C118.922 33.5299 121.165 32.9693 122.952 31.8482C124.739 30.692 126.07 29.0978 126.946 27.0657C127.857 24.9985 128.312 22.5985 128.312 19.8657C128.312 17.4482 128.032 15.1708 127.472 13.0336C126.911 10.8964 126.07 9.0219 124.949 7.41022C123.863 5.7635 122.496 4.48467 120.85 3.57372C119.203 2.66277 117.276 2.2073 115.068 2.2073C112.441 2.2073 110.233 2.76788 108.446 3.88905C106.659 5.01022 105.31 6.58686 104.4 8.61898C103.489 10.6161 103.033 12.981 103.033 15.7139C103.033 18.1664 103.296 20.4613 103.821 22.5985C104.382 24.7358 105.205 26.6277 106.292 28.2745C107.413 29.9212 108.797 31.2175 110.443 32.1635C112.09 33.0745 114.017 33.5299 116.225 33.5299Z"
                fill="currentColor"
            />
            <path
                d="M157.097 35.6847C154.644 35.6847 152.279 35.2642 150.002 34.4234C147.725 33.5825 145.692 32.3912 143.906 30.8496C142.119 29.273 140.7 27.3985 139.649 25.2263C138.632 23.019 138.124 20.5839 138.124 17.9212C138.124 15.3635 138.667 12.9985 139.754 10.8263C140.84 8.65401 142.329 6.76204 144.221 5.15036C146.113 3.53869 148.268 2.29489 150.685 1.41898C153.138 0.508029 155.713 0.0525541 158.411 0.0525541C159.777 0.0525541 160.934 0.105109 161.88 0.210219C162.826 0.31533 163.737 0.472994 164.613 0.683212C165.524 0.858395 166.575 1.10365 167.766 1.41898C168.292 1.55912 168.659 1.76934 168.87 2.04964C169.115 2.32993 169.255 2.71533 169.29 3.20584C169.36 4.01168 169.448 4.88759 169.553 5.83358C169.658 6.74453 169.728 7.88321 169.763 9.24963C169.798 9.49489 169.676 9.70511 169.395 9.88029C169.15 10.0204 168.87 10.0555 168.554 9.9854C168.274 9.91533 168.081 9.68759 167.976 9.30219C167.626 7.9708 167.223 6.83212 166.767 5.88613C166.312 4.90511 165.629 4.09927 164.718 3.46861C163.842 2.87299 162.773 2.43504 161.512 2.15474C160.285 1.83942 158.954 1.68175 157.518 1.68175C155.485 1.68175 153.593 2.10219 151.842 2.94307C150.125 3.7489 148.636 4.87007 147.374 6.30657C146.148 7.70803 145.184 9.30219 144.484 11.0891C143.783 12.8759 143.433 14.7328 143.433 16.6599C143.433 18.7971 143.765 20.8993 144.431 22.9664C145.132 25.0336 146.113 26.908 147.374 28.5898C148.671 30.2365 150.195 31.5679 151.947 32.5839C153.734 33.565 155.713 34.0555 157.885 34.0555C160.408 34.0555 162.493 33.4774 164.14 32.3212C165.786 31.165 167.188 29.5533 168.344 27.4861C168.589 27.0307 168.94 26.8029 169.395 26.8029C169.886 26.8029 170.131 27.0832 170.131 27.6438C170.131 27.9241 170.061 28.3796 169.921 29.0102C169.781 29.6058 169.588 30.254 169.343 30.9547C169.132 31.6204 168.922 32.2161 168.712 32.7416C168.467 33.2321 168.256 33.5475 168.081 33.6876C167.941 33.8277 167.591 33.9854 167.03 34.1606C165.734 34.6861 164.175 35.0715 162.353 35.3168C160.566 35.562 158.814 35.6847 157.097 35.6847Z"
                fill="currentColor"
            />
            <path
                d="M177.014 35.6321C175.787 35.6321 174.859 35.3518 174.228 34.7912C173.598 34.1956 173.282 33.4599 173.282 32.5839C173.282 31.8832 173.422 31.3401 173.703 30.9547C173.983 30.5693 174.281 30.3766 174.596 30.3766C174.982 30.5168 175.577 30.6569 176.383 30.7971C177.189 30.9372 178.03 31.0073 178.906 31.0073C179.782 31.0073 180.588 30.5869 181.323 29.746C182.094 28.8701 182.76 27.4686 183.32 25.5416C183.916 23.5796 184.372 20.9693 184.687 17.7109C185.002 14.4526 185.16 10.4234 185.16 5.62336C185.16 4.6073 184.932 3.85402 184.477 3.3635C184.021 2.83796 183.128 2.45256 181.796 2.2073C180.64 1.99708 180.062 1.64672 180.062 1.15621C180.062 0.945987 180.202 0.805841 180.482 0.735766C180.763 0.630656 181.131 0.578101 181.586 0.578101C181.936 0.578101 182.374 0.59562 182.9 0.630658C183.426 0.665694 184.004 0.70073 184.634 0.735766C185.3 0.770802 185.948 0.78832 186.579 0.78832C187.56 0.78832 188.523 0.78832 189.47 0.78832C190.416 0.78832 191.344 0.78832 192.255 0.78832C193.166 0.78832 194.077 0.78832 194.988 0.78832C195.899 0.78832 196.81 0.78832 197.721 0.78832C198.667 0.753284 199.63 0.735766 200.611 0.735766C201.382 0.735766 202.013 0.735766 202.503 0.735766C202.994 0.70073 203.519 0.665694 204.08 0.630658C204.641 0.59562 205.394 0.578101 206.34 0.578101C206.795 0.578101 207.163 0.630656 207.444 0.735766C207.724 0.805841 207.864 0.945987 207.864 1.15621C207.864 1.40146 207.724 1.61168 207.444 1.78686C207.163 1.96204 206.725 2.10219 206.13 2.2073C204.833 2.45256 203.887 2.83796 203.292 3.3635C202.696 3.88905 202.398 4.76496 202.398 5.99124V29.746C202.398 30.9723 202.766 31.8657 203.502 32.4263C204.238 32.9869 205.254 33.3898 206.55 33.635C207.146 33.7402 207.584 33.8628 207.864 34.0029C208.144 34.1431 208.285 34.3358 208.285 34.581C208.285 34.7912 208.144 34.9314 207.864 35.0015C207.584 35.1066 207.216 35.1591 206.76 35.1591C205.814 35.1591 205.026 35.1241 204.395 35.054C203.8 35.019 203.222 34.9839 202.661 34.9489C202.1 34.9139 201.417 34.8964 200.611 34.8964C199.735 34.8964 198.965 34.9139 198.299 34.9489C197.668 34.9839 197.003 35.019 196.302 35.054C195.636 35.1241 194.83 35.1591 193.884 35.1591C193.429 35.1591 193.061 35.1066 192.781 35.0015C192.5 34.9314 192.36 34.7912 192.36 34.581C192.36 34.1606 192.938 33.8453 194.094 33.635C195.426 33.3898 196.442 32.9518 197.143 32.3212C197.843 31.6555 198.194 30.7796 198.194 29.6934V5.72847C198.194 4.81752 198.071 4.09927 197.826 3.57372C197.616 3.04818 197.178 2.7854 196.512 2.7854H189.049C188.488 2.7854 188.086 2.96059 187.84 3.31095C187.63 3.66131 187.525 4.25694 187.525 5.09781C187.525 10.4934 187.262 15.0131 186.737 18.6569C186.211 22.3007 185.528 25.2613 184.687 27.5387C183.881 29.781 183.005 31.4978 182.059 32.6891C181.113 33.8453 180.185 34.6161 179.274 35.0015C178.398 35.4219 177.644 35.6321 177.014 35.6321Z"
                fill="currentColor"
            />
            <path
                d="M230.197 35.6321C227.885 35.6321 225.677 35.2292 223.575 34.4234C221.473 33.5825 219.616 32.4088 218.004 30.9022C216.392 29.3606 215.114 27.5387 214.168 25.4365C213.221 23.2993 212.748 20.9343 212.748 18.3416C212.748 15.9591 213.134 13.6818 213.905 11.5095C214.676 9.30219 215.814 7.34015 217.321 5.62336C218.827 3.90657 220.702 2.54015 222.944 1.52409C225.187 0.508029 227.762 0 230.67 0C232.983 0 235.19 0.420438 237.292 1.26131C239.394 2.06715 241.251 3.24088 242.863 4.78248C244.475 6.28905 245.754 8.11095 246.7 10.2482C247.646 12.3504 248.119 14.6978 248.119 17.2905C248.119 19.638 247.733 21.9153 246.962 24.1226C246.192 26.3299 245.053 28.292 243.546 30.0088C242.04 31.7256 240.165 33.092 237.923 34.108C235.68 35.1241 233.105 35.6321 230.197 35.6321ZM230.985 33.5299C233.683 33.5299 235.926 32.9693 237.713 31.8482C239.499 30.692 240.831 29.0978 241.707 27.0657C242.618 24.9985 243.073 22.5985 243.073 19.8657C243.073 17.4482 242.793 15.1708 242.232 13.0336C241.672 10.8964 240.831 9.0219 239.71 7.41022C238.624 5.7635 237.257 4.48467 235.61 3.57372C233.964 2.66277 232.037 2.2073 229.829 2.2073C227.201 2.2073 224.994 2.76788 223.207 3.88905C221.42 5.01022 220.071 6.58686 219.16 8.61898C218.249 10.6161 217.794 12.981 217.794 15.7139C217.794 18.1664 218.057 20.4613 218.582 22.5985C219.143 24.7358 219.966 26.6277 221.052 28.2745C222.174 29.9212 223.558 31.2175 225.204 32.1635C226.851 33.0745 228.778 33.5299 230.985 33.5299Z"
                fill="currentColor"
            />
            <path
                d="M252.99 35.1591C252.535 35.1591 252.167 35.1066 251.887 35.0015C251.606 34.9314 251.466 34.7912 251.466 34.581C251.466 34.1606 252.044 33.8453 253.201 33.635C254.532 33.3898 255.548 32.9869 256.249 32.4263C256.95 31.8657 257.3 30.9547 257.3 29.6934V6.0438C257.3 4.78248 257.037 3.85401 256.512 3.25839C255.986 2.66277 255.075 2.31241 253.779 2.2073C253.183 2.13723 252.745 2.0146 252.465 1.83942C252.184 1.6292 252.044 1.40146 252.044 1.15621C252.044 0.945987 252.184 0.805841 252.465 0.735766C252.745 0.630656 253.113 0.578101 253.568 0.578101C254.514 0.578101 255.25 0.578101 255.776 0.578101C256.301 0.578101 256.792 0.59562 257.247 0.630658C257.738 0.630658 258.334 0.630658 259.034 0.630658C259.7 0.630658 260.278 0.613139 260.769 0.578101C261.259 0.508029 261.802 0.455475 262.398 0.420439C263.029 0.385403 263.852 0.367885 264.868 0.367885C268.967 0.367885 272.016 0.963505 274.013 2.15474C276.045 3.31095 277.061 5.32555 277.061 8.19854C277.061 9.38978 276.851 10.4409 276.43 11.3518C276.045 12.2277 275.659 12.8584 275.274 13.2438C274.713 13.8044 274.205 14.2423 273.75 14.5577C273.294 14.838 272.629 15.1533 271.753 15.5037C271.613 15.5387 271.543 15.6263 271.543 15.7664C271.543 15.8715 271.613 15.9591 271.753 16.0292C272.559 16.2745 273.382 16.5898 274.223 16.9752C275.099 17.3606 275.905 17.8686 276.641 18.4993C277.411 19.0949 278.025 19.9007 278.48 20.9168C278.97 21.8978 279.216 23.1591 279.216 24.7007C279.216 26.6277 278.9 28.1518 278.27 29.273C277.674 30.3942 276.956 31.2526 276.115 31.8482C275.274 32.4438 274.486 32.9343 273.75 33.3197C272.664 33.8803 271.402 34.3183 269.966 34.6336C268.529 34.9489 266.813 35.1066 264.815 35.1066C264.36 35.1066 263.677 35.0715 262.766 35.0015C261.855 34.9314 260.874 34.8964 259.823 34.8964C258.912 34.8964 258.141 34.9139 257.51 34.9489C256.879 34.9839 256.214 35.019 255.513 35.054C254.847 35.1241 254.006 35.1591 252.99 35.1591ZM265.551 32.9518C267.093 32.9518 268.529 32.6015 269.861 31.9007C271.192 31.2 272.261 30.254 273.067 29.0628C273.873 27.8365 274.276 26.4701 274.276 24.9635C274.276 23.5971 274.048 22.4759 273.592 21.6C273.137 20.6891 272.611 19.9533 272.016 19.3927C271.42 18.8321 270.877 18.4292 270.386 18.1839C269.931 17.9037 269.213 17.6234 268.232 17.3431C267.251 17.0277 265.972 16.8701 264.395 16.8701C263.274 16.8701 262.485 17.0978 262.03 17.5533C261.61 18.0088 261.399 18.4117 261.399 18.762V29.2204C261.399 30.692 261.75 31.6905 262.45 32.2161C263.186 32.7066 264.22 32.9518 265.551 32.9518ZM263.817 15.3985C264.763 15.3985 265.779 15.2934 266.865 15.0832C267.986 14.873 269.09 14.4701 270.176 13.8745C270.562 13.6642 271.052 13.1562 271.648 12.3504C272.243 11.5445 272.541 10.3883 272.541 8.88175C272.541 7.86569 272.348 6.83212 271.963 5.78102C271.578 4.69489 270.842 3.78394 269.756 3.04818C268.67 2.31241 267.04 1.94453 264.868 1.94453C263.431 1.94453 262.485 2.13723 262.03 2.52263C261.61 2.90803 261.399 3.50365 261.399 4.30949V13.454C261.399 14.365 261.697 14.9255 262.293 15.1358C262.888 15.311 263.396 15.3985 263.817 15.3985Z"
                fill="currentColor"
            />
            <path
                d="M287.357 35.6321C286.587 35.6321 285.903 35.3518 285.308 34.7912C284.747 34.1956 284.467 33.5124 284.467 32.7416C284.467 31.9358 284.747 31.2526 285.308 30.692C285.903 30.1314 286.587 29.8511 287.357 29.8511C288.163 29.8511 288.846 30.1314 289.407 30.692C289.968 31.2526 290.248 31.9358 290.248 32.7416C290.248 33.5124 289.968 34.1956 289.407 34.7912C288.846 35.3518 288.163 35.6321 287.357 35.6321Z"
                fill="currentColor"
            />
            <path
                d="M326.904 36C325.923 36 324.995 35.9124 324.119 35.7372C323.243 35.5971 322.437 35.3168 321.701 34.8964C320.965 34.4759 320.282 33.8978 319.651 33.162C318.81 32.111 318.005 31.1124 317.234 30.1664C316.463 29.1854 315.64 28.0642 314.764 26.8029C313.923 25.5416 312.889 23.9299 311.663 21.9679C311.137 21.092 310.384 20.4088 309.403 19.9182C308.632 19.5328 307.861 19.2701 307.091 19.1299C306.355 18.9547 305.742 18.8496 305.251 18.8146C304.971 18.7796 304.761 18.8672 304.62 19.0774C304.515 19.2876 304.463 19.5504 304.463 19.8657V29.1153C304.463 30.2365 304.725 31.2175 305.251 32.0584C305.777 32.8642 306.688 33.3898 307.984 33.635C308.58 33.7402 309.018 33.8628 309.298 34.0029C309.578 34.1431 309.718 34.3358 309.718 34.581C309.718 34.7912 309.578 34.9314 309.298 35.0015C309.018 35.1066 308.65 35.1591 308.194 35.1591C307.248 35.1591 306.512 35.1241 305.987 35.054C305.496 34.9839 305.041 34.9314 304.62 34.8964C304.235 34.8263 303.709 34.7912 303.044 34.7912C302.168 34.7912 301.379 34.8263 300.679 34.8964C300.013 34.9314 299.33 34.9839 298.629 35.054C297.963 35.1241 297.157 35.1591 296.211 35.1591C295.756 35.1591 295.388 35.1066 295.108 35.0015C294.827 34.9314 294.687 34.7912 294.687 34.581C294.687 34.1606 295.265 33.8453 296.422 33.635C297.753 33.3898 298.717 32.9869 299.312 32.4263C299.943 31.8657 300.258 30.9372 300.258 29.6409V7.25256C300.258 5.92117 300.188 4.92263 300.048 4.25694C299.943 3.5562 299.663 3.06569 299.207 2.7854C298.787 2.50511 298.068 2.31241 297.052 2.2073C296.457 2.13723 296.019 2.0146 295.738 1.83942C295.458 1.6292 295.318 1.40146 295.318 1.15621C295.318 0.945987 295.458 0.805841 295.738 0.735766C296.019 0.630656 296.387 0.578101 296.842 0.578101C297.788 0.578101 298.489 0.578101 298.944 0.578101C299.435 0.578101 299.89 0.59562 300.311 0.630658C300.731 0.630658 301.292 0.630658 301.993 0.630658C302.658 0.630658 303.254 0.613139 303.78 0.578101C304.305 0.508029 304.883 0.455475 305.514 0.420439C306.18 0.385403 307.02 0.367885 308.037 0.367885C311.891 0.367885 314.816 1.08613 316.813 2.52263C318.846 3.95912 319.862 6.11387 319.862 8.98686C319.862 10.5635 319.546 11.9299 318.916 13.0861C318.285 14.2073 317.497 15.1533 316.551 15.9241C315.605 16.6949 314.641 17.3255 313.66 17.8161C313.52 17.8511 313.45 17.9387 313.45 18.0788C313.485 18.1839 313.555 18.3241 313.66 18.4993C314.746 20.146 315.78 21.7051 316.761 23.1766C317.777 24.6482 318.881 26.0847 320.072 27.4861C321.263 28.8876 322.682 30.3416 324.329 31.8482C325.24 32.654 326.168 33.1445 327.114 33.3197C328.06 33.4949 329.146 33.5825 330.373 33.5825C330.898 33.5825 331.161 33.7752 331.161 34.1606C331.161 34.6861 330.898 35.0715 330.373 35.3168C329.847 35.5971 329.252 35.7723 328.586 35.8423C327.92 35.9474 327.36 36 326.904 36ZM307.248 17.6058C308.86 17.6058 310.244 17.238 311.4 16.5022C312.591 15.7664 313.502 14.8029 314.133 13.6117C314.799 12.4204 315.132 11.1591 315.132 9.82774C315.132 8.39124 314.939 7.07737 314.553 5.88613C314.203 4.69489 313.467 3.74891 312.346 3.04818C311.26 2.31241 309.613 1.94453 307.406 1.94453C306.285 1.94453 305.549 2.31241 305.199 3.04818C304.848 3.74891 304.638 5.01022 304.568 6.83212C304.533 7.70803 304.498 8.89927 304.463 10.4058C304.463 11.8774 304.463 13.6642 304.463 15.7664C304.463 16.6423 304.708 17.1679 305.199 17.3431C305.689 17.5182 306.372 17.6058 307.248 17.6058Z"
                fill="currentColor"
            />
            <path
                d="M347.29 35.6321C344.172 35.6321 341.561 35.0891 339.459 34.0029C337.357 32.8818 335.78 31.3226 334.729 29.3255C333.678 27.2934 333.153 24.946 333.153 22.2832V6.1489C333.153 4.88759 332.89 3.97664 332.364 3.41606C331.874 2.82044 331.331 2.45255 330.735 2.31241C329.579 1.99708 329.001 1.61168 329.001 1.15621C329.001 0.945987 329.141 0.805841 329.421 0.735766C329.701 0.630656 330.069 0.578101 330.525 0.578101C331.331 0.578101 332.119 0.613138 332.89 0.683212C333.696 0.718248 334.589 0.735766 335.57 0.735766C336.376 0.735766 337.129 0.718248 337.83 0.683212C338.566 0.648176 339.214 0.630658 339.775 0.630658C340.23 0.630658 340.598 0.683212 340.878 0.78832C341.159 0.858395 341.299 0.998541 341.299 1.20876C341.299 1.45402 341.159 1.64672 340.878 1.78686C340.598 1.92701 340.16 2.08467 339.564 2.25985C339.144 2.4 338.671 2.80292 338.145 3.46861C337.62 4.13431 337.357 4.9927 337.357 6.0438V20.8117C337.357 23.6146 337.83 25.927 338.776 27.7489C339.722 29.5358 341.018 30.8672 342.665 31.7431C344.347 32.5839 346.257 33.0044 348.394 33.0044C352.003 33.0044 354.648 31.7606 356.33 29.273C358.012 26.7504 358.852 23.4394 358.852 19.3401C358.852 18.5693 358.835 17.5533 358.8 16.292C358.8 15.0307 358.782 13.6818 358.747 12.2453C358.712 10.7737 358.677 9.37226 358.642 8.04088C358.642 7.12993 358.555 6.27153 358.379 5.46569C358.239 4.65986 358.012 3.97664 357.696 3.41606C357.381 2.82044 356.978 2.45255 356.487 2.31241C356.137 2.2073 355.752 2.06715 355.331 1.89197C354.946 1.71679 354.753 1.50657 354.753 1.26131C354.753 1.05109 354.893 0.91095 355.173 0.840878C355.454 0.735767 355.822 0.683212 356.277 0.683212C357.083 0.683212 357.749 0.70073 358.274 0.735766C358.8 0.735766 359.448 0.735766 360.219 0.735766C360.779 0.735766 361.305 0.735766 361.796 0.735766C362.286 0.70073 362.759 0.665694 363.215 0.630658C363.67 0.59562 364.09 0.578101 364.476 0.578101C364.931 0.578101 365.299 0.630656 365.58 0.735766C365.86 0.805841 366 0.945987 366 1.15621C366 1.61168 365.422 1.96204 364.266 2.2073C363.355 2.38248 362.706 2.82044 362.321 3.52117C361.936 4.2219 361.708 5.09781 361.638 6.1489C361.463 9.16204 361.34 11.9124 361.27 14.4C361.235 16.8876 361.182 19.3401 361.112 21.7577C361.042 24.4555 360.394 26.8555 359.168 28.9577C357.941 31.0599 356.295 32.7066 354.227 33.8978C352.195 35.054 349.883 35.6321 347.29 35.6321Z"
                fill="currentColor"
            />
        </svg>