<svg width="12" height="12" viewBox="0 0 12 12" fill="none" xmlns="http://www.w3.org/2000/svg">
<path fill-rule="evenodd" clip-rule="evenodd" d="M6.00006 5.95501C6.82504 5.95501 7.56753 5.62499 8.10756 5.085C8.64756 4.545 8.97755 3.795 8.97755 2.9775C8.97755 2.15248 8.64756 1.40999 8.10756 0.869995C7.56753 0.329997 6.82504 0 6.00006 0C5.17505 0 4.43255 0.329997 3.89256 0.869995C3.35253 1.40999 3.02254 2.15248 3.02254 2.9775C3.02254 3.80251 3.35253 4.545 3.89256 5.085C4.43255 5.61749 5.17505 5.95501 6.00006 5.95501ZM5.04756 2.0175C5.29504 1.76999 5.63256 1.61999 6.00006 1.61999C6.37506 1.61999 6.71255 1.76999 6.95256 2.0175C7.20004 2.265 7.35006 2.6025 7.35006 2.96999C7.35006 3.33749 7.20004 3.68248 6.95256 3.92249C6.70505 4.17 6.36756 4.32 6.00006 4.32C5.62506 4.32 5.28754 4.17 5.04756 3.92249C4.80005 3.67498 4.65006 3.33749 4.65006 2.96999C4.65006 2.6025 4.80005 2.265 5.04756 2.0175ZM9.12754 5.96248L10.0051 7.15499C10.0426 7.215 10.0351 7.29748 9.97505 7.34249C9.24006 7.94249 8.39254 8.34 7.50006 8.55L9.34504 11.7975C9.39755 11.8875 9.33004 12 9.22506 12H7.41754C7.36507 12 7.31256 11.97 7.29005 11.9175L6.00006 9.03749L4.71004 11.9175C4.68757 11.97 4.63506 12 4.58255 12H2.77507C2.67005 12 2.60257 11.8875 2.64754 11.7975L4.49256 8.55C3.60004 8.34 2.74506 7.94249 2.01007 7.34249C1.95756 7.29748 1.94255 7.215 1.98756 7.15499L2.85755 5.96248C2.91006 5.895 3.00754 5.8875 3.06755 5.93998C3.89256 6.6375 4.90504 7.09498 5.99256 7.09498C7.08005 7.09498 8.09256 6.645 8.91757 5.93998C8.98505 5.8875 9.07506 5.895 9.12754 5.96248Z" fill="currentColor"/>
</svg>
