<svg width="12" height="11" viewBox="0 0 12 11" fill="none" xmlns="http://www.w3.org/2000/svg">
<path d="M6.3222 6.34911H1.88275V4.57045H6.3222C6.58152 4.57045 6.76183 4.61621 6.85232 4.69613C6.94281 4.77605 6.99887 4.92427 6.99887 5.14079V5.77945C6.99887 6.00759 6.94281 6.15582 6.85232 6.23573C6.76183 6.31565 6.58152 6.34911 6.3222 6.34911ZM6.62677 2.89355H0V10.5H1.88275V8.02532H5.35246L6.99887 10.5H9.10717L7.29195 8.01372C7.96117 7.91331 8.26169 7.70566 8.50952 7.36345C8.75735 7.02124 8.88162 6.47412 8.88162 5.74394V5.17358C8.88162 4.74053 8.83637 4.39831 8.75735 4.13603C8.67835 3.87373 8.54328 3.64559 8.35149 3.44068C8.14891 3.24669 7.92335 3.11008 7.65256 3.01855C7.38176 2.93863 7.04343 2.89355 6.62677 2.89355Z" fill="currentColor"/>
<path d="M10.5535 2.89286C11.3524 2.89286 12 2.24527 12 1.44643C12 0.64759 11.3524 0 10.5535 0C9.75471 0 9.10712 0.64759 9.10712 1.44643C9.10712 2.24527 9.75471 2.89286 10.5535 2.89286Z" fill="currentColor"/>
</svg>
