<svg width="12" height="12" viewBox="0 0 12 12" fill="none" xmlns="http://www.w3.org/2000/svg">
<path d="M6.53592 9.75C2.43598 9.75 0.0974391 6.93468 0 2.25H2.05372C2.12117 5.68844 3.63523 7.14489 4.83448 7.4452V2.25H6.76827V5.21547C7.95253 5.08784 9.19675 3.73649 9.61649 2.25H11.5503C11.3921 3.02093 11.0768 3.75089 10.6241 4.3942C10.1715 5.03751 9.59113 5.58034 8.91943 5.98874C9.6692 6.3619 10.3314 6.89009 10.8625 7.53844C11.3935 8.18678 11.7812 8.94055 12 9.75H9.87133C9.6749 9.04693 9.27567 8.41757 8.72367 7.9408C8.17167 7.46402 7.49145 7.16104 6.76827 7.06982V9.75H6.53592Z" fill="currentColor"/>
</svg>
