<svg width="12" height="12" viewBox="0 0 12 12" fill="none" xmlns="http://www.w3.org/2000/svg">
<path fill-rule="evenodd" clip-rule="evenodd" d="M1.23408 9.88125C1.02012 9.81742 0.824899 9.70387 0.664886 9.55017C0.504872 9.39648 0.384765 9.20716 0.314699 8.99818C-0.0856794 7.91805 -0.20431 3.40781 0.566788 2.51744C0.823424 2.2278 1.18576 2.04947 1.57515 2.02117C3.64377 1.80222 10.035 1.83142 10.769 2.09415C10.9755 2.16008 11.1641 2.27114 11.3207 2.41902C11.4774 2.56689 11.598 2.74775 11.6736 2.94803C12.111 4.06464 12.1258 8.1224 11.6143 9.19523C11.4785 9.47449 11.2513 9.7007 10.9692 9.83746C10.1981 10.217 2.25727 10.2097 1.23408 9.88125ZM4.51867 7.76479L8.22587 5.86728L4.51867 3.95517V7.76479Z" fill="currentColor"/>
</svg>
