<svg width="110" height="40" viewBox="0 0 110 40" fill="none" xmlns="http://www.w3.org/2000/svg">
<g opacity="0.3">
<path d="M13.147 26.0921L14.8452 19.4702L16.583 26.0921H18.7025L20.9537 16.8767H19.0843L17.6098 23.4723H17.5967L15.8326 16.8767H13.9237L12.1597 23.4723H12.1465L10.7247 16.8767H8.75L11.0275 26.0921H13.147ZM24.179 26.25C24.8723 26.25 25.4823 26.0921 26.0089 25.7761C26.5355 25.4601 26.9304 24.9862 27.1937 24.3543L25.4165 24.17C25.1795 24.5825 24.7758 24.7887 24.2053 24.7887C23.8367 24.7887 23.5252 24.6725 23.2706 24.4399C23.0161 24.2073 22.8669 23.9199 22.823 23.5776H27.3122V23.5118C27.3122 22.3182 27.0116 21.4186 26.4104 20.813C25.8092 20.2074 25.0567 19.9046 24.1527 19.9046C23.2487 19.9046 22.5005 20.203 21.9081 20.7998C21.3157 21.3966 21.0195 22.1558 21.0195 23.0773C21.0195 23.9989 21.3201 24.758 21.9213 25.3548C22.5224 25.9516 23.275 26.25 24.179 26.25ZM25.4823 22.4323H22.7835C22.8538 22.0987 23.0117 21.8311 23.2575 21.6292C23.5032 21.4273 23.8016 21.3264 24.1527 21.3264C24.5037 21.3264 24.8021 21.4317 25.0479 21.6424C25.2936 21.853 25.4384 22.1163 25.4823 22.4323ZM31.9067 26.25C32.7404 26.25 33.4382 25.9494 33.9999 25.3482C34.5616 24.7471 34.8424 23.9901 34.8424 23.0773C34.8424 22.1646 34.5637 21.4076 34.0064 20.8064C33.4491 20.2052 32.7536 19.9046 31.9198 19.9046C31.481 19.9046 31.0905 19.9924 30.7482 20.1679C30.4059 20.3434 30.1602 20.5672 30.011 20.8393C30.011 20.8042 30.0153 20.6682 30.0241 20.4312C30.0329 20.1942 30.0373 20.0012 30.0373 19.852V16.8767H28.3259V26.0921H30.0373V25.3285C30.1953 25.5918 30.4432 25.8112 30.7811 25.9867C31.119 26.1623 31.4942 26.25 31.9067 26.25ZM31.5381 24.7361C31.0905 24.7361 30.7219 24.5759 30.4322 24.2556C30.1426 23.9352 29.9978 23.5425 29.9978 23.0773C29.9978 22.6034 30.1426 22.2106 30.4322 21.8991C30.7219 21.5875 31.0905 21.4317 31.5381 21.4317C31.9857 21.4317 32.3543 21.5897 32.6439 21.9057C32.9335 22.2128 33.0783 22.6034 33.0783 23.0773C33.0783 23.5425 32.9335 23.9352 32.6439 24.2556C32.3543 24.5759 31.9857 24.7361 31.5381 24.7361ZM41.4247 26.25C42.3287 26.25 43.0923 25.9516 43.7154 25.3548C44.3385 24.7492 44.6501 23.9901 44.6501 23.0773C44.6501 22.1646 44.3385 21.4076 43.7154 20.8064C43.0923 20.2052 42.3287 19.9046 41.4247 19.9046C40.5208 19.9046 39.7572 20.2052 39.1341 20.8064C38.511 21.4076 38.1994 22.1646 38.1994 23.0773C38.1994 23.9901 38.511 24.7471 39.1341 25.3482C39.7572 25.9494 40.5208 26.25 41.4247 26.25ZM41.4247 24.7229C40.9771 24.7229 40.6129 24.5671 40.3321 24.2556C40.0512 23.944 39.9108 23.5513 39.9108 23.0773C39.9108 22.6034 40.0512 22.2106 40.3321 21.8991C40.6129 21.5875 40.9771 21.4317 41.4247 21.4317C41.8636 21.4317 42.2234 21.5875 42.5042 21.8991C42.7851 22.2106 42.9255 22.6034 42.9255 23.0773C42.9255 23.5513 42.7851 23.944 42.5042 24.2556C42.2234 24.5671 41.8636 24.7229 41.4247 24.7229ZM47.8623 26.0921V21.5107H49.0208V20.0626H47.8623V18.8383C47.8623 18.6452 47.9061 18.5135 47.9939 18.4433C48.0817 18.3731 48.2177 18.338 48.402 18.338C48.5249 18.338 48.7619 18.36 49.1129 18.4038V16.8372L47.8623 16.7582C47.3532 16.7582 46.9407 16.8855 46.6248 17.14C46.3088 17.3945 46.1509 17.7983 46.1509 18.3512V20.0626H45.203V21.5107H46.1509V26.0921H47.8623ZM55.1555 26.25C56.1209 26.25 56.8954 25.9802 57.4791 25.4404C58.0627 24.9006 58.3545 24.2622 58.3545 23.5249C58.3545 22.8667 58.1614 22.3225 57.7753 21.8925C57.3891 21.4624 56.8011 21.0631 56.0112 20.6945L55.2477 20.3391C54.5806 20.0319 54.2471 19.6677 54.2471 19.2464C54.2471 18.9831 54.3612 18.7725 54.5894 18.6145C54.8176 18.4565 55.0897 18.3775 55.4056 18.3775C56.0551 18.3775 56.7045 18.6935 57.354 19.3254L58.4072 18.0089C57.4154 17.1488 56.4018 16.7188 55.3661 16.7188C54.5148 16.7188 53.7886 16.9557 53.1874 17.4296C52.5862 17.9036 52.2856 18.5311 52.2856 19.3122C52.2856 20.4005 52.957 21.2606 54.2998 21.8925L55.1067 22.2709C55.5249 22.4716 55.8374 22.6636 56.0441 22.8469C56.2767 23.0532 56.393 23.3011 56.393 23.5908C56.393 23.8804 56.2767 24.1195 56.0441 24.3082C55.8115 24.4969 55.5022 24.5913 55.116 24.5913C54.7562 24.5913 54.3744 24.4947 53.9707 24.3016C53.567 24.1086 53.1984 23.8409 52.8648 23.4986L51.8512 24.8677C52.799 25.7893 53.9005 26.25 55.1555 26.25ZM62.3039 26.25C62.9973 26.25 63.6138 26.0745 64.1536 25.7234C64.6933 25.3724 65.0597 24.8984 65.2528 24.3016L63.6467 23.8014C63.401 24.4157 62.9578 24.7229 62.3171 24.7229C61.8695 24.7229 61.5053 24.5671 61.2244 24.2556C60.9436 23.944 60.8032 23.5513 60.8032 23.0773C60.8032 22.6034 60.9436 22.2106 61.2244 21.8991C61.5053 21.5875 61.8695 21.4317 62.3171 21.4317C62.6243 21.4317 62.8941 21.5151 63.1267 21.6819C63.3593 21.8486 63.5326 22.0724 63.6467 22.3533L65.2528 21.8662C65.0597 21.2694 64.6933 20.7932 64.1536 20.4378C63.6138 20.0823 62.9973 19.9046 62.3039 19.9046C61.3999 19.9046 60.6386 20.2052 60.0199 20.8064C59.4011 21.4076 59.0917 22.1646 59.0917 23.0773C59.0917 23.9901 59.4011 24.7471 60.0199 25.3482C60.6386 25.9494 61.3999 26.25 62.3039 26.25ZM67.3987 19.0752C67.7058 19.0752 67.9669 18.9699 68.182 18.7593C68.397 18.5487 68.5045 18.2897 68.5045 17.9826C68.5045 17.6754 68.397 17.4143 68.182 17.1993C67.9669 16.9842 67.7058 16.8767 67.3987 16.8767C67.1003 16.8767 66.8435 16.9842 66.6285 17.1993C66.4135 17.4143 66.306 17.6754 66.306 17.9826C66.306 18.2897 66.4113 18.5487 66.6219 18.7593C66.8326 18.9699 67.0915 19.0752 67.3987 19.0752ZM68.3333 26.0921V20.0626H65.7794V21.5107H66.6219V26.0921H68.3333ZM72.5855 26.25C73.2789 26.25 73.8888 26.0921 74.4154 25.7761C74.942 25.4601 75.337 24.9862 75.6003 24.3543L73.823 24.17C73.5861 24.5825 73.1823 24.7887 72.6119 24.7887C72.2433 24.7887 71.9317 24.6725 71.6772 24.4399C71.4227 24.2073 71.2735 23.9199 71.2296 23.5776H75.7187V23.5118C75.7187 22.3182 75.4181 21.4186 74.8169 20.813C74.2158 20.2074 73.4632 19.9046 72.5592 19.9046C71.6552 19.9046 70.907 20.203 70.3146 20.7998C69.7222 21.3966 69.426 22.1558 69.426 23.0773C69.426 23.9989 69.7266 24.758 70.3278 25.3548C70.929 25.9516 71.6816 26.25 72.5855 26.25ZM73.8888 22.4323H71.1901C71.2603 22.0987 71.4183 21.8311 71.664 21.6292C71.9098 21.4273 72.2082 21.3264 72.5592 21.3264C72.9103 21.3264 73.2087 21.4317 73.4544 21.6424C73.7001 21.853 73.845 22.1163 73.8888 22.4323ZM78.4438 26.0921V22.1821C78.8124 21.7257 79.2381 21.4976 79.7208 21.4976C80.0104 21.4976 80.254 21.5875 80.4514 21.7674C80.6489 21.9474 80.7476 22.2172 80.7476 22.5771V26.0921H82.4591V22.1426C82.4591 21.4493 82.2528 20.9029 81.8403 20.5036C81.4278 20.1043 80.8881 19.9046 80.2211 19.9046C79.4663 19.9046 78.8519 20.1942 78.378 20.7735L78.4043 20.2996V20.0626H76.7324V26.0921H78.4438ZM86.6981 26.25C87.3914 26.25 88.008 26.0745 88.5477 25.7234C89.0875 25.3724 89.4539 24.8984 89.647 24.3016L88.0409 23.8014C87.7951 24.4157 87.3519 24.7229 86.7112 24.7229C86.2636 24.7229 85.8994 24.5671 85.6186 24.2556C85.3377 23.944 85.1973 23.5513 85.1973 23.0773C85.1973 22.6034 85.3377 22.2106 85.6186 21.8991C85.8994 21.5875 86.2636 21.4317 86.7112 21.4317C87.0184 21.4317 87.2883 21.5151 87.5209 21.6819C87.7534 21.8486 87.9268 22.0724 88.0409 22.3533L89.647 21.8662C89.4539 21.2694 89.0875 20.7932 88.5477 20.4378C88.008 20.0823 87.3914 19.9046 86.6981 19.9046C85.7941 19.9046 85.0327 20.2052 84.414 20.8064C83.7953 21.4076 83.4859 22.1646 83.4859 23.0773C83.4859 23.9901 83.7953 24.7471 84.414 25.3482C85.0327 25.9494 85.7941 26.25 86.6981 26.25ZM93.4384 26.25C94.1317 26.25 94.7417 26.0921 95.2683 25.7761C95.7949 25.4601 96.1898 24.9862 96.4531 24.3543L94.6759 24.17C94.4389 24.5825 94.0352 24.7887 93.4647 24.7887C93.0961 24.7887 92.7845 24.6725 92.53 24.4399C92.2755 24.2073 92.1263 23.9199 92.0824 23.5776H96.5716V23.5118C96.5716 22.3182 96.271 21.4186 95.6698 20.813C95.0686 20.2074 94.316 19.9046 93.4121 19.9046C92.5081 19.9046 91.7599 20.203 91.1675 20.7998C90.5751 21.3966 90.2789 22.1558 90.2789 23.0773C90.2789 23.9989 90.5795 24.758 91.1806 25.3548C91.7818 25.9516 92.5344 26.25 93.4384 26.25ZM94.7417 22.4323H92.0429C92.1132 22.0987 92.2711 21.8311 92.5169 21.6292C92.7626 21.4273 93.061 21.3264 93.4121 21.3264C93.7631 21.3264 94.0615 21.4317 94.3073 21.6424C94.553 21.853 94.6978 22.1163 94.7417 22.4323Z" fill="#272829"/>
<path d="M98.3658 15.6699V14.0901H98.939V13.75H97.4141V14.0901H97.9873V15.6699H98.3658ZM99.5478 15.6699V14.3122L99.9263 15.2585H100.329L100.697 14.3122V15.6699H101.075V13.75H100.563L100.135 14.8388L99.7151 13.75H99.1776V15.6699H99.5478Z" fill="#272829"/>
<path d="M98.3658 15.6699V14.0901H98.939V13.75H97.4141V14.0901H97.9873V15.6699H98.3658ZM99.5478 15.6699V14.3122L99.9263 15.2585H100.329L100.697 14.3122V15.6699H101.075V13.75H100.563L100.135 14.8388L99.7151 13.75H99.1776V15.6699H99.5478Z" fill="#272829"/>
</g>
</svg>
