<svg width="110" height="40" viewBox="0 0 110 40" fill="none" xmlns="http://www.w3.org/2000/svg">
<g opacity="0.3">
<path d="M46.1486 21.3072C46.0013 20.3499 45.0808 19.6135 44.0131 19.6135C42.0985 19.6135 41.3621 21.2335 41.3621 22.964C41.3621 24.584 42.0985 26.2409 44.0131 26.2409C45.3385 26.2409 46.0749 25.3572 46.2222 24.0686H48.3209C48.1 26.4986 46.4431 28.045 44.0499 28.045C41.0307 28.045 39.2634 25.7991 39.2634 23.0008C39.2634 20.0921 41.0307 17.8462 44.0499 17.8462C46.1854 17.8462 47.9895 19.098 48.2472 21.344H46.1486V21.3072Z" fill="#272829"/>
<path d="M49.0569 20.718H50.8978V22.0435H50.9346C51.3028 21.1599 52.2601 20.5339 53.1806 20.5339C53.3279 20.5339 53.4751 20.5708 53.5856 20.6076V22.4117C53.4015 22.3749 53.107 22.3381 52.886 22.3381C51.4501 22.3381 50.9715 23.369 50.9715 24.584V27.7504H49.0569V20.718Z" fill="#272829"/>
<path d="M57.3035 20.5339C59.5126 20.5339 60.9486 22.0067 60.9486 24.2526C60.9486 26.4986 59.5126 27.9713 57.3035 27.9713C55.0944 27.9713 53.6584 26.4986 53.6584 24.2526C53.6584 22.0067 55.0944 20.5339 57.3035 20.5339ZM57.3035 26.4986C58.629 26.4986 59.034 25.3572 59.034 24.2526C59.034 23.1113 58.629 22.0067 57.3035 22.0067C55.978 22.0067 55.6098 23.1481 55.6098 24.2526C55.6098 25.394 55.978 26.4986 57.3035 26.4986Z" fill="#272829"/>
<path d="M63.1951 25.5045C63.1951 26.3514 63.9315 26.6827 64.6679 26.6827C65.2202 26.6827 65.9197 26.4618 65.9197 25.7991C65.9197 25.21 65.1097 25.0259 63.7106 24.6945C62.606 24.4368 61.4647 24.0686 61.4647 22.8167C61.4647 21.0126 63.011 20.5708 64.5206 20.5708C66.067 20.5708 67.4661 21.0863 67.6134 22.8167H65.7725C65.7356 22.0804 65.1465 21.8595 64.447 21.8595C64.0052 21.8595 63.3792 21.9331 63.3792 22.5222C63.3792 23.2218 64.4838 23.2954 65.5884 23.5899C66.7298 23.8477 67.8343 24.2527 67.8343 25.5782C67.8343 27.4191 66.2143 28.045 64.6311 28.045C63.0111 28.045 61.391 27.4191 61.3174 25.5782H63.1951V25.5045Z" fill="#272829"/>
<path d="M70.265 25.5045C70.265 26.3514 71.0013 26.6827 71.7377 26.6827C72.29 26.6827 72.9896 26.4618 72.9896 25.7991C72.9896 25.21 72.1795 25.0259 70.7804 24.6945C69.6759 24.4368 68.5345 24.0686 68.5345 22.8168C68.5345 21.0126 70.0809 20.5708 71.5904 20.5708C73.1368 20.5708 74.536 21.0863 74.6832 22.8168H72.8423C72.8055 22.0804 72.2164 21.8595 71.5168 21.8595C71.075 21.8595 70.4491 21.9331 70.4491 22.5222C70.4491 23.2218 71.5536 23.2954 72.6582 23.5899C73.7996 23.8477 74.9041 24.2527 74.9041 25.5782C74.9041 27.4191 73.2841 28.045 71.7009 28.045C70.0809 28.045 68.4608 27.4191 68.3872 25.5782H70.265V25.5045Z" fill="#272829"/>
<path d="M75.604 20.718H77.4449V22.0435H77.4817C77.8499 21.1599 78.8072 20.5339 79.7277 20.5339C79.8749 20.5339 80.0222 20.5708 80.1327 20.6076V22.4117C79.9486 22.3749 79.654 22.3381 79.4331 22.3381C77.9972 22.3381 77.5185 23.369 77.5185 24.584V27.7504H75.5671V20.718H75.604Z" fill="#272829"/>
<path d="M82.2673 24.7313C82.3041 25.9463 82.93 26.5354 83.9978 26.5354C84.771 26.5354 85.3969 26.0568 85.5073 25.6149H87.201C86.6487 27.2718 85.5073 27.9713 83.8873 27.9713C81.6782 27.9713 80.2791 26.4618 80.2791 24.2526C80.2791 22.154 81.7518 20.5339 83.8873 20.5339C86.2805 20.5339 87.4587 22.559 87.3115 24.7313H82.2673ZM85.3969 23.5163C85.2128 22.5222 84.8078 22.0067 83.8505 22.0067C82.6355 22.0067 82.2673 22.964 82.2305 23.5163H85.3969Z" fill="#272829"/>
<path d="M88.4168 22.0436H87.2754V20.7549H88.4168V20.2026C88.4168 18.9508 89.19 18.0671 90.7732 18.0671C91.1045 18.0671 91.4727 18.104 91.8041 18.104V19.5399C91.5832 19.5031 91.3255 19.5031 91.1045 19.5031C90.5891 19.5031 90.3682 19.724 90.3682 20.3131V20.7181H91.6937V22.0068H90.3682V27.7505H88.4168V22.0436Z" fill="#272829"/>
<g clip-path="url(#clip0_3736_715)">
<path d="M24.3843 22.9639L35.0617 19.282V26.6458L24.3843 22.9639Z" fill="#272829"/>
<path d="M28.8037 17.073L18.1262 20.7549V13.3911L28.8037 17.073Z" fill="#272829"/>
<path d="M29.8747 17.4412L18.8611 21.1595L23.3114 22.5958L34.325 18.8802L29.8747 17.4412Z" fill="#272829"/>
<path d="M35.0614 7.86816L18.8611 13.059L29.7705 16.7047L35.0614 15.0095V7.86816Z" fill="#272829"/>
<path d="M18.1262 25.0272V32.1686L34.3265 26.9777L23.4171 23.332L18.1262 25.0272Z" fill="#272829"/>
</g>
</g>
<defs>
<clipPath id="clip0_3736_715">
<rect width="16.9367" height="24.3004" fill="white" transform="translate(18.1262 7.86816)"/>
</clipPath>
</defs>
</svg>
