<svg width="110" height="40" viewBox="0 0 110 40" fill="none" xmlns="http://www.w3.org/2000/svg">
<g opacity="0.3">
<path d="M27.7208 25.9686C26.6911 25.9686 25.383 25.775 24.375 25.282L24.6107 23.5662C25.4687 24.1024 26.5624 24.4673 27.6776 24.4673C29.4363 24.4673 30.187 23.4589 30.187 22.4938C30.187 20.0279 24.4822 19.6846 24.4822 16.0383C24.4822 14.0871 25.7688 12.5 28.7716 12.5C29.9509 12.5 30.959 12.7145 31.8813 13.1219L31.7953 14.8377C30.7874 14.259 29.6937 13.9798 28.7716 13.9798C26.9272 13.9798 26.3694 14.9875 26.3694 15.9533C26.3694 18.4623 32.0742 18.9338 32.0742 22.3865C32.0742 24.36 30.4872 25.9686 27.7208 25.9686Z" fill="#272829"/>
<path d="M41.2726 25.0675C40.3074 25.7325 39.1493 25.9686 38.0556 25.9686C35.5462 25.9686 33.7446 24.1671 33.7446 20.7785C33.7446 17.2395 36.1468 15.7388 38.0984 15.7388C39.8784 15.7388 41.1221 16.1887 41.2726 17.4756C41.2938 17.6685 41.2938 17.9471 41.2938 18.1832H39.7496C39.7496 17.3468 39.2993 17.1539 38.1841 17.1539C37.5194 17.1539 35.2769 17.6416 35.5461 20.7138C35.5461 23.438 37.1116 24.5529 38.5058 24.5529C39.2993 24.5529 40.5002 24.1023 41.1437 23.5661L41.2726 25.0675Z" fill="#272829"/>
<path d="M46.7407 25.9686C44.0384 25.9686 42.2368 23.9526 42.2368 20.8642C42.2368 18.0118 43.8883 15.7388 46.9764 15.7388C49.7003 15.7388 51.5019 17.69 51.5019 20.8642C51.5019 23.8663 49.6788 25.9686 46.7407 25.9686ZM46.762 17.1539C45.99 17.1539 44.0168 17.426 44.0168 20.7569C44.0168 23.8453 45.6683 24.5529 46.9552 24.5529C49.3187 24.5529 49.7216 22.6657 49.7216 21.0139C49.7216 19.2124 49.1426 17.1539 46.762 17.1539Z" fill="#272829"/>
<path d="M57.528 25.9685C56.7341 25.9685 56.005 25.8182 55.3831 25.4964V29.9999H53.732V18.6984C53.732 17.9471 53.6888 17.2827 53.6457 16.7896L53.5601 15.9958H55.0824L55.3401 17.433C56.3693 16.2318 57.292 15.7388 58.6639 15.7388C60.6374 15.7388 62.1814 17.0257 62.1814 20.4567C62.1814 23.7806 60.2732 25.9685 57.528 25.9685ZM58.2781 17.2185C57.785 17.2185 56.2188 17.372 55.3831 19.2124V23.9951C55.5761 24.1023 55.769 24.2096 55.9618 24.2743C56.3051 24.4241 56.7766 24.5529 57.2919 24.5529C59.4152 24.5529 60.3798 22.9874 60.3798 20.6497C60.3798 19.2771 60.1228 17.2185 58.2781 17.2185Z" fill="#272829"/>
<path d="M72.366 25.7111H70.8652L70.6075 24.2953C69.6208 25.6254 68.8917 25.9896 67.4334 25.9896C65.7175 25.9896 64.324 25.2821 64.324 22.7946V15.9958H65.9751V21.6365C65.9751 23.2236 66.1039 24.553 67.5838 24.553C69.478 24.7025 70.1144 23.3518 70.5434 22.4513V15.9958H72.1946V23.03C72.1946 23.8023 72.2161 24.4457 72.2802 24.9388L72.366 25.7111Z" fill="#272829"/>
<path d="M77.726 25.9895C76.632 25.9895 75.4524 25.711 74.7017 25.1963L74.8952 23.6518C75.6028 24.1023 76.3319 24.6385 77.5972 24.6385C78.9698 24.6385 79.6132 24.0167 79.6132 23.266C79.6132 21.2931 74.7664 21.4004 74.7664 18.3976C74.7664 16.9394 75.9029 15.7388 78.2407 15.7388C79.5276 15.7388 80.364 16.103 81.029 16.4673L80.857 18.0118C80.0207 17.2395 78.9482 17.0682 78.2622 17.0682C77.1682 17.0682 76.4175 17.4972 76.4175 18.2695C76.4175 20.2207 81.2644 20.0494 81.2644 23.1372C81.2644 24.5744 80.192 25.9895 77.726 25.9895Z" fill="#272829"/>
<path d="M82.7222 14.1943C82.7222 13.2501 83.5154 12.5 84.4381 12.5C85.3817 12.5 86.1324 13.2716 86.1324 14.1943C86.1324 15.1373 85.3817 15.8885 84.4381 15.8885C83.5154 15.8885 82.7222 15.1373 82.7222 14.1943ZM83.108 14.1943C83.108 14.9228 83.709 15.5021 84.4381 15.5021C85.1672 15.5021 85.7459 14.9228 85.7459 14.1943C85.7459 13.4646 85.1672 12.8858 84.4381 12.8858C83.709 12.8858 83.108 13.4646 83.108 14.1943ZM84.5662 14.773L84.2877 14.3656H84.1589V15.1156H83.8156V13.2501H84.3734C84.7382 13.2501 85.0815 13.3788 85.0815 13.7863C85.0815 14.0864 84.9096 14.2584 84.6735 14.3225C84.8671 14.6017 85.06 14.8587 85.2954 15.1157H84.807C84.807 15.1157 84.7167 14.9875 84.5662 14.773ZM84.1589 14.0864H84.4381C84.6094 14.0864 84.7167 14.0008 84.7167 13.8078C84.7167 13.6359 84.6094 13.5293 84.4381 13.5293H84.1589V14.0864Z" fill="#272829"/>
</g>
</svg>
