<svg width="110" height="40" viewBox="0 0 110 40" fill="none" xmlns="http://www.w3.org/2000/svg">
<g opacity="0.3">
<path d="M16.0549 19.6865L11.6991 22.7263C11.8139 22.81 11.9341 22.8699 12.0595 22.9064C12.1848 22.9431 12.3467 22.9612 12.5452 22.9612C12.9526 22.9612 13.3546 22.8672 13.7516 22.6792C14.0232 22.554 14.2844 22.3816 14.5351 22.1623L15.8825 24.4654C15.2766 24.9041 14.6342 25.2174 13.9553 25.4055C13.4329 25.5516 12.9002 25.6248 12.3572 25.6248C10.832 25.6248 9.62031 25.181 8.72213 24.293C7.90738 23.4888 7.5 22.5016 7.5 21.3317C7.5 20.1619 7.90738 19.1642 8.72213 18.339C9.57853 17.4721 10.665 17.0386 11.9811 17.0386C12.848 17.0386 13.6444 17.2607 14.3705 17.7045C15.0965 18.1485 15.6578 18.8091 16.0549 19.6865ZM12.8742 19.8432C12.7489 19.7075 12.6131 19.6082 12.4668 19.5455C12.3205 19.4828 12.1535 19.4515 11.9655 19.4515C11.5894 19.4515 11.2682 19.5744 11.0019 19.8197C10.7355 20.0653 10.6023 20.4229 10.6023 20.893C10.6023 21.0707 10.6387 21.2222 10.712 21.3474L12.8742 19.8432Z" fill="#272829"/>
<path d="M24.1866 22.2092L23.4659 25.3742H17.0732V14.6257L20.4731 14.375V22.2092H24.1866Z" fill="#272829"/>
<path d="M28.496 25.3742L25.0959 25.6249V14.6257L28.496 14.375V25.3742Z" fill="#272829"/>
<path d="M38.6478 22.3347C38.6478 23.2331 38.3188 23.9641 37.6607 24.5281C37.0026 25.0922 36.1511 25.3742 35.1068 25.3742H30.2183V14.6257H34.6367C35.8483 14.6257 36.7833 14.9182 37.4413 15.5032C38.0157 16.0151 38.3031 16.668 38.3031 17.4617C38.3031 17.9631 38.1881 18.4096 37.9584 18.8013C37.7285 19.1931 37.3838 19.4986 36.9243 19.7179C37.5091 19.9583 37.9529 20.329 38.2561 20.8304C38.5171 21.2692 38.6478 21.7706 38.6478 22.3347ZM34.9031 17.9004C34.9031 17.6497 34.8169 17.4488 34.6446 17.2972C34.4722 17.1459 34.245 17.07 33.963 17.07H33.6183V18.7465H34.0257C34.2972 18.7465 34.5114 18.6629 34.6681 18.4958C34.8247 18.3288 34.9031 18.1303 34.9031 17.9004ZM35.1068 21.9272C35.1068 21.6557 35.0178 21.4311 34.8404 21.2534C34.6627 21.076 34.3963 20.9872 34.0413 20.9872H33.6183V22.8673H34.0413C34.4383 22.8673 34.7254 22.7524 34.9031 22.5226C35.0387 22.3451 35.1068 22.1465 35.1068 21.9272Z" fill="#272829"/>
<path d="M48.8487 25.2319L45.104 25.6249L43.2708 20.9087H43.2081V25.3742L39.8081 25.6249V14.6257H43.5215C44.8376 14.6257 45.8717 14.7929 46.6238 15.1271C47.8354 15.6704 48.4413 16.6366 48.4413 18.0258C48.4413 18.6317 48.2925 19.1722 47.9948 19.6474C47.6971 20.1228 47.2713 20.4754 46.7178 20.705L48.8487 25.2319ZM44.869 18.9032C44.869 18.5272 44.7488 18.2191 44.5086 17.9788C44.2682 17.7386 43.9653 17.6184 43.5998 17.6184H43.2081V20.2037H43.6625C44.0175 20.2037 44.3074 20.0758 44.5321 19.8198C44.7565 19.564 44.869 19.2585 44.869 18.9032Z" fill="#272829"/>
<path d="M60.0042 25.3742L56.322 25.6249L55.7893 23.7605H52.8436L52.2952 25.6249L48.7385 25.3742L52.2796 14.6257H56.3846L60.0042 25.3742ZM55.1469 21.0811L54.3166 17.6967L53.4391 21.0811H55.1469Z" fill="#272829"/>
<path d="M69.4522 25.2319L65.7074 25.6249L63.8742 20.9087H63.8116V25.3742L60.4116 25.6249V14.6257H64.1249C65.441 14.6257 66.4751 14.7929 67.2273 15.1271C68.4389 15.6704 69.0448 16.6366 69.0448 18.0258C69.0448 18.6317 68.8959 19.1722 68.5983 19.6474C68.3006 20.1228 67.8748 20.4754 67.3213 20.705L69.4522 25.2319ZM65.4723 18.9032C65.4723 18.5271 65.3521 18.2191 65.112 17.9788C64.8715 17.7386 64.5687 17.6184 64.2032 17.6184H63.8115V20.2037H64.2658C64.6208 20.2037 64.9106 20.0758 65.1353 19.8198C65.3601 19.564 65.4723 19.2585 65.4723 18.9032Z" fill="#272829"/>
<path d="M78.8853 14.6884L74.7019 25.6208L70.9728 25.245L72.5397 21.8617L69.2336 14.6884L72.947 14.375L74.2318 17.9787L75.3756 14.375L78.8853 14.6884Z" fill="#272829"/>
<path d="M82.6747 23.5841L80.6377 25.621L78.6008 23.5841L80.6377 21.5471L82.6747 23.5841Z" fill="#272829"/>
<path d="M92.6717 25.2319L88.9269 25.6249L87.0937 20.9087H87.0311V25.3742L83.6311 25.6249V14.6257H87.3444C88.6605 14.6257 89.6946 14.7929 90.4468 15.1271C91.6584 15.6704 92.2643 16.6366 92.2643 18.0258C92.2643 18.6317 92.1153 19.1722 91.8178 19.6474C91.5201 20.1228 91.0943 20.4754 90.5408 20.705L92.6717 25.2319ZM88.692 18.9032C88.692 18.5271 88.5717 18.2191 88.3316 17.9788C88.0911 17.7386 87.7883 17.6184 87.4228 17.6184H87.0311V20.2037H87.4854C87.8404 20.2037 88.1303 20.0758 88.355 19.8198C88.5797 19.564 88.692 19.2585 88.692 18.9032Z" fill="#272829"/>
<path d="M102.011 21.8958C102.011 23.139 101.593 24.0844 100.757 24.7319C99.9949 25.3273 98.9556 25.625 97.6394 25.625C96.4903 25.625 95.5608 25.3065 94.8506 24.6692C94.1402 24.0322 93.7852 23.1182 93.7852 21.9273V14.6257L97.1852 14.375V21.6764C97.1852 21.9898 97.2451 22.2145 97.3654 22.3502C97.4853 22.4861 97.676 22.554 97.9372 22.554C98.2087 22.554 98.3969 22.4548 98.5013 22.2563C98.5743 22.1206 98.611 21.9271 98.611 21.6766V14.6258L102.011 14.375V21.8958Z" fill="#272829"/>
</g>
</svg>
