<svg width="1440" height="800" viewBox="0 0 1440 800" fill="none" xmlns="http://www.w3.org/2000/svg">
<rect width="5596" height="5108.57" transform="translate(-1858 -2059)" fill="url(#paint0_linear_19478_4664)"/>
<path opacity="0.8" d="M3738 3049.57L940 -2059L-1858 3049.57L3738 3049.57Z" fill="url(#paint1_radial_19478_4664)" fill-opacity="0.08"/>
<path opacity="0.8" d="M3534.76 2956.56L838.38 -1965.99L-1858 2956.56L3534.76 2956.56Z" fill="url(#paint2_radial_19478_4664)" fill-opacity="0.08"/>
<path opacity="0.8" d="M3295.35 2848.05L718.675 -1857.48L-1858 2848.05L3295.35 2848.05Z" fill="url(#paint3_radial_19478_4664)" fill-opacity="0.08"/>
<path opacity="0.8" d="M3073.16 2746.43L607.582 -1755.86L-1858 2746.43L3073.16 2746.43Z" fill="url(#paint4_radial_19478_4664)" fill-opacity="0.08"/>
<path opacity="0.8" d="M2850.98 2644.81L496.489 -1654.24L-1858 2644.81L2850.98 2644.81Z" fill="url(#paint5_radial_19478_4664)" fill-opacity="0.08"/>
<path opacity="0.8" d="M2850.98 2644.81L496.489 -1654.24L-1858 2644.81L2850.98 2644.81Z" fill="url(#paint6_radial_19478_4664)" fill-opacity="0.08"/>
<path opacity="0.8" d="M2682.18 2644.81L496.489 -1345.94L-1689.21 2644.81L2682.18 2644.81Z" fill="url(#paint7_radial_19478_4664)" fill-opacity="0.08"/>
<path opacity="0.8" d="M2506.5 2644.81L496.489 -1025.57L-1513.52 2644.81L2506.5 2644.81Z" fill="url(#paint8_radial_19478_4664)" fill-opacity="0.08"/>
<path opacity="0.8" d="M2308.43 2644.81L496.489 -663.875L-1315.45 2644.81L2308.43 2644.81Z" fill="url(#paint9_radial_19478_4664)" fill-opacity="0.08"/>
<path opacity="0.8" d="M2032.85 2481.18L496.489 -326.29L-1039.87 2481.18L2032.85 2481.18Z" fill="url(#paint10_radial_19478_4664)" fill-opacity="0.08"/>
<path opacity="0.8" d="M1738.32 2272.78L496.489 2.68395L-745.343 2272.78L1738.32 2272.78Z" fill="url(#paint11_radial_19478_4664)" fill-opacity="0.08"/>
<path opacity="0.8" d="M1471 2146.98L496 364.981L-478.999 2146.98L1471 2146.98Z" fill="url(#paint12_radial_19478_4664)" fill-opacity="0.08"/>
<path fill-rule="evenodd" clip-rule="evenodd" d="M745.134 457.243C747.646 457.296 750.188 457.322 752.761 457.322C801.175 457.322 838.707 447.975 865.358 429.281C892.105 410.587 905.479 384.367 905.479 350.621C905.479 316.876 892.153 290.704 865.502 272.106C838.851 253.412 801.27 244.064 752.761 244.064C705.916 244.064 669.262 252.782 642.801 270.216L667.329 315.044C670.878 310.39 675.293 306.287 680.573 302.735C696.775 291.902 720.838 286.486 752.761 286.486C784.685 286.486 808.7 291.902 824.806 302.735C840.912 313.473 848.965 329.435 848.965 350.621C848.965 371.808 840.912 387.818 824.806 398.651C808.7 409.484 784.685 414.901 752.761 414.901C741.036 414.901 730.371 414.17 720.767 412.708L745.134 457.243Z" fill="white"/>
<path d="M528.863 453.727H474.362V416.339H274.909V376.506L474.362 247.516H528.863V376.218H578.043V416.339H528.863V453.727ZM345.084 376.218H474.362V293.532L345.084 376.218Z" fill="white"/>
<path d="M1215.67 393.937C1215.67 436.097 1168.57 457.178 1074.35 457.178C1030.56 457.178 997.38 452.184 974.811 442.196C952.243 432.112 938.125 416.41 932.459 395.09L989.937 384.285C992.338 395.906 1000.26 404.453 1013.71 409.927C1027.15 415.401 1047.66 418.138 1075.22 418.138C1102.2 418.138 1121.99 415.93 1134.57 411.512C1147.15 407.094 1153.44 400.276 1153.44 391.056C1153.44 383.661 1149.79 378.139 1142.49 374.49C1135.19 370.744 1123.67 368.871 1107.92 368.871H1019.47V329.976H1107.63C1123.28 329.976 1134.67 328.104 1141.77 324.358C1148.88 320.517 1152.43 314.899 1152.43 307.504C1152.43 290.793 1126.6 282.438 1074.93 282.438C1048.33 282.438 1028.21 285.127 1014.57 290.505C1000.93 295.883 992.818 304.094 990.225 315.139L936.204 304.046C947.729 263.711 993.875 243.543 1074.64 243.543C1119.97 243.543 1154.16 248.345 1177.21 257.949C1200.26 267.552 1211.78 281.814 1211.78 300.733C1211.78 312.065 1207.99 321.573 1200.4 329.256C1192.91 336.939 1181.29 342.893 1165.54 347.119C1198.96 353.65 1215.67 369.256 1215.67 393.937Z" fill="white"/>
<defs>
<linearGradient id="paint0_linear_19478_4664" x1="-714.244" y1="-0.000212456" x2="6493.86" y2="1752.47" gradientUnits="userSpaceOnUse">
<stop stop-color="#003666"/>
<stop offset="1" stop-color="#1F78C5"/>
</linearGradient>
<radialGradient id="paint1_radial_19478_4664" cx="0" cy="0" r="1" gradientUnits="userSpaceOnUse" gradientTransform="translate(911.738 843.595) rotate(89.3064) scale(2334.68 2616.92)">
<stop offset="0.233325" stop-color="white" stop-opacity="0"/>
<stop offset="1" stop-color="white"/>
</radialGradient>
<radialGradient id="paint2_radial_19478_4664" cx="0" cy="0" r="1" gradientUnits="userSpaceOnUse" gradientTransform="translate(811.144 830.912) rotate(89.3063) scale(2249.67 2521.88)">
<stop offset="0.233325" stop-color="white" stop-opacity="0"/>
<stop offset="1" stop-color="white"/>
</radialGradient>
<radialGradient id="paint3_radial_19478_4664" cx="0" cy="0" r="1" gradientUnits="userSpaceOnUse" gradientTransform="translate(692.648 816.115) rotate(89.3065) scale(2150.49 2409.92)">
<stop offset="0.233325" stop-color="white" stop-opacity="0"/>
<stop offset="1" stop-color="white"/>
</radialGradient>
<radialGradient id="paint4_radial_19478_4664" cx="0" cy="0" r="1" gradientUnits="userSpaceOnUse" gradientTransform="translate(582.677 802.258) rotate(89.3065) scale(2057.6 2306.01)">
<stop offset="0.233325" stop-color="white" stop-opacity="0"/>
<stop offset="1" stop-color="white"/>
</radialGradient>
<radialGradient id="paint5_radial_19478_4664" cx="0" cy="0" r="1" gradientUnits="userSpaceOnUse" gradientTransform="translate(472.706 788.401) rotate(89.3064) scale(1964.72 2202.11)">
<stop offset="0.233325" stop-color="white" stop-opacity="0"/>
<stop offset="1" stop-color="white"/>
</radialGradient>
<radialGradient id="paint6_radial_19478_4664" cx="0" cy="0" r="1" gradientUnits="userSpaceOnUse" gradientTransform="translate(472.706 788.401) rotate(89.3064) scale(1964.72 2202.11)">
<stop offset="0.233325" stop-color="white" stop-opacity="0"/>
<stop offset="1" stop-color="white"/>
</radialGradient>
<radialGradient id="paint7_radial_19478_4664" cx="0" cy="0" r="1" gradientUnits="userSpaceOnUse" gradientTransform="translate(474.411 921.533) rotate(89.3064) scale(1823.82 2044.24)">
<stop offset="0.233325" stop-color="white" stop-opacity="0"/>
<stop offset="1" stop-color="white"/>
</radialGradient>
<radialGradient id="paint8_radial_19478_4664" cx="0" cy="0" r="1" gradientUnits="userSpaceOnUse" gradientTransform="translate(476.186 1059.87) rotate(89.3065) scale(1677.41 1879.93)">
<stop offset="0.233325" stop-color="white" stop-opacity="0"/>
<stop offset="1" stop-color="white"/>
</radialGradient>
<radialGradient id="paint9_radial_19478_4664" cx="0" cy="0" r="1" gradientUnits="userSpaceOnUse" gradientTransform="translate(478.186 1216.06) rotate(89.3065) scale(1512.11 1694.67)">
<stop offset="0.233325" stop-color="white" stop-opacity="0"/>
<stop offset="1" stop-color="white"/>
</radialGradient>
<radialGradient id="paint10_radial_19478_4664" cx="0" cy="0" r="1" gradientUnits="userSpaceOnUse" gradientTransform="translate(480.97 1268.87) rotate(89.307) scale(1283.05 1436.93)">
<stop offset="0.233325" stop-color="white" stop-opacity="0"/>
<stop offset="1" stop-color="white"/>
</radialGradient>
<radialGradient id="paint11_radial_19478_4664" cx="0" cy="0" r="1" gradientUnits="userSpaceOnUse" gradientTransform="translate(483.946 1292.51) rotate(89.3072) scale(1037.46 1161.46)">
<stop offset="0.233325" stop-color="white" stop-opacity="0"/>
<stop offset="1" stop-color="white"/>
</radialGradient>
<radialGradient id="paint12_radial_19478_4664" cx="0" cy="0" r="1" gradientUnits="userSpaceOnUse" gradientTransform="translate(496 1224.99) rotate(90) scale(921.991 1032.38)">
<stop stop-color="white" stop-opacity="0"/>
<stop offset="1" stop-color="white"/>
</radialGradient>
</defs>
</svg>
