<svg width="1440" height="800" viewBox="0 0 1440 800" fill="none" xmlns="http://www.w3.org/2000/svg">
<rect width="5596" height="5108.57" transform="translate(-1858 -2059)" fill="url(#paint0_linear_10377_19300)"/>
<path opacity="0.8" d="M3738 3049.57L940 -2059L-1858 3049.57L3738 3049.57Z" fill="url(#paint1_radial_10377_19300)" fill-opacity="0.08"/>
<path opacity="0.8" d="M3534.76 2956.56L838.38 -1965.99L-1858 2956.56L3534.76 2956.56Z" fill="url(#paint2_radial_10377_19300)" fill-opacity="0.08"/>
<path opacity="0.8" d="M3295.35 2848.05L718.675 -1857.48L-1858 2848.05L3295.35 2848.05Z" fill="url(#paint3_radial_10377_19300)" fill-opacity="0.08"/>
<path opacity="0.8" d="M3073.16 2746.43L607.582 -1755.86L-1858 2746.43L3073.16 2746.43Z" fill="url(#paint4_radial_10377_19300)" fill-opacity="0.08"/>
<path opacity="0.8" d="M2850.98 2644.81L496.488 -1654.24L-1858 2644.81L2850.98 2644.81Z" fill="url(#paint5_radial_10377_19300)" fill-opacity="0.08"/>
<path opacity="0.8" d="M2850.98 2644.81L496.488 -1654.24L-1858 2644.81L2850.98 2644.81Z" fill="url(#paint6_radial_10377_19300)" fill-opacity="0.08"/>
<path opacity="0.8" d="M2682.18 2644.81L496.488 -1345.94L-1689.21 2644.81L2682.18 2644.81Z" fill="url(#paint7_radial_10377_19300)" fill-opacity="0.08"/>
<path opacity="0.8" d="M2506.5 2644.81L496.488 -1025.57L-1513.52 2644.81L2506.5 2644.81Z" fill="url(#paint8_radial_10377_19300)" fill-opacity="0.08"/>
<path opacity="0.8" d="M2308.43 2644.81L496.488 -663.875L-1315.45 2644.81L2308.43 2644.81Z" fill="url(#paint9_radial_10377_19300)" fill-opacity="0.08"/>
<path opacity="0.8" d="M2032.85 2481.18L496.488 -326.29L-1039.87 2481.18L2032.85 2481.18Z" fill="url(#paint10_radial_10377_19300)" fill-opacity="0.08"/>
<path opacity="0.8" d="M1738.32 2272.78L496.489 2.68395L-745.344 2272.78L1738.32 2272.78Z" fill="url(#paint11_radial_10377_19300)" fill-opacity="0.08"/>
<path opacity="0.8" d="M1471 2146.98L496 364.981L-479 2146.98L1471 2146.98Z" fill="url(#paint12_radial_10377_19300)" fill-opacity="0.08"/>
<path d="M528.14 454.065H473.476V416.63H273.428V376.747L473.476 247.596H528.14V376.459H577.467V416.63H528.14V454.065ZM343.813 376.459H473.476V293.67L343.813 376.459Z" fill="white"/>
<path d="M1184.68 454.065H1130.02V416.63H929.967V376.747L1130.02 247.596H1184.68V376.459H1234.01V416.63H1184.68V454.065ZM1000.35 376.459H1130.02V293.67L1000.35 376.459Z" fill="white"/>
<path fill-rule="evenodd" clip-rule="evenodd" d="M745.24 456.919C747.777 456.973 750.345 457 752.945 457C801.526 457 839.189 447.62 865.933 428.861C892.773 410.102 906.193 383.791 906.193 349.928C906.193 316.065 892.821 289.802 866.077 271.139C839.333 252.38 801.622 243 752.945 243C705.841 243 669.006 251.783 642.441 269.348L667.111 314.363C670.69 309.636 675.155 305.474 680.505 301.875C696.763 291.004 720.91 285.569 752.945 285.569C784.98 285.569 809.078 291.004 825.24 301.875C841.402 312.65 849.483 328.667 849.483 349.928C849.483 371.188 841.402 387.254 825.24 398.125C809.078 408.995 784.98 414.431 752.945 414.431C741.138 414.431 730.404 413.693 720.74 412.216L745.24 456.919Z" fill="white"/>

<linearGradient id="paint0_linear_10377_19300" x1="-714.244" y1="-0.000212456" x2="6493.86" y2="1752.47" gradientUnits="userSpaceOnUse">
<stop stop-color="#003666"/>
<stop offset="1" stop-color="#1F78C5"/>
</linearGradient>
<radialGradient id="paint1_radial_10377_19300" cx="0" cy="0" r="1" gradientUnits="userSpaceOnUse" gradientTransform="translate(911.737 843.595) rotate(89.3064) scale(2334.68 2616.92)">
<stop offset="0.233325" stop-color="white" stop-opacity="0"/>
<stop offset="1" stop-color="white"/>
</radialGradient>
<radialGradient id="paint2_radial_10377_19300" cx="0" cy="0" r="1" gradientUnits="userSpaceOnUse" gradientTransform="translate(811.143 830.912) rotate(89.3063) scale(2249.67 2521.88)">
<stop offset="0.233325" stop-color="white" stop-opacity="0"/>
<stop offset="1" stop-color="white"/>
</radialGradient>
<radialGradient id="paint3_radial_10377_19300" cx="0" cy="0" r="1" gradientUnits="userSpaceOnUse" gradientTransform="translate(692.647 816.115) rotate(89.3065) scale(2150.49 2409.92)">
<stop offset="0.233325" stop-color="white" stop-opacity="0"/>
<stop offset="1" stop-color="white"/>
</radialGradient>
<radialGradient id="paint4_radial_10377_19300" cx="0" cy="0" r="1" gradientUnits="userSpaceOnUse" gradientTransform="translate(582.677 802.258) rotate(89.3065) scale(2057.6 2306.01)">
<stop offset="0.233325" stop-color="white" stop-opacity="0"/>
<stop offset="1" stop-color="white"/>
</radialGradient>
<radialGradient id="paint5_radial_10377_19300" cx="0" cy="0" r="1" gradientUnits="userSpaceOnUse" gradientTransform="translate(472.706 788.401) rotate(89.3064) scale(1964.72 2202.11)">
<stop offset="0.233325" stop-color="white" stop-opacity="0"/>
<stop offset="1" stop-color="white"/>
</radialGradient>
<radialGradient id="paint6_radial_10377_19300" cx="0" cy="0" r="1" gradientUnits="userSpaceOnUse" gradientTransform="translate(472.706 788.401) rotate(89.3064) scale(1964.72 2202.11)">
<stop offset="0.233325" stop-color="white" stop-opacity="0"/>
<stop offset="1" stop-color="white"/>
</radialGradient>
<radialGradient id="paint7_radial_10377_19300" cx="0" cy="0" r="1" gradientUnits="userSpaceOnUse" gradientTransform="translate(474.41 921.533) rotate(89.3064) scale(1823.82 2044.24)">
<stop offset="0.233325" stop-color="white" stop-opacity="0"/>
<stop offset="1" stop-color="white"/>
</radialGradient>
<radialGradient id="paint8_radial_10377_19300" cx="0" cy="0" r="1" gradientUnits="userSpaceOnUse" gradientTransform="translate(476.185 1059.87) rotate(89.3065) scale(1677.41 1879.93)">
<stop offset="0.233325" stop-color="white" stop-opacity="0"/>
<stop offset="1" stop-color="white"/>
</radialGradient>
<radialGradient id="paint9_radial_10377_19300" cx="0" cy="0" r="1" gradientUnits="userSpaceOnUse" gradientTransform="translate(478.186 1216.06) rotate(89.3065) scale(1512.11 1694.67)">
<stop offset="0.233325" stop-color="white" stop-opacity="0"/>
<stop offset="1" stop-color="white"/>
</radialGradient>
<radialGradient id="paint10_radial_10377_19300" cx="0" cy="0" r="1" gradientUnits="userSpaceOnUse" gradientTransform="translate(480.97 1268.87) rotate(89.307) scale(1283.05 1436.93)">
<stop offset="0.233325" stop-color="white" stop-opacity="0"/>
<stop offset="1" stop-color="white"/>
</radialGradient>
<radialGradient id="paint11_radial_10377_19300" cx="0" cy="0" r="1" gradientUnits="userSpaceOnUse" gradientTransform="translate(483.945 1292.51) rotate(89.3072) scale(1037.46 1161.46)">
<stop offset="0.233325" stop-color="white" stop-opacity="0"/>
<stop offset="1" stop-color="white"/>
</radialGradient>
<radialGradient id="paint12_radial_10377_19300" cx="0" cy="0" r="1" gradientUnits="userSpaceOnUse" gradientTransform="translate(496 1224.99) rotate(90) scale(921.991 1032.38)">
<stop stop-color="white" stop-opacity="0"/>
<stop offset="1" stop-color="white"/>
</radialGradient>
</svg>
