<svg :width="width" :height="height" viewBox="0 0 41 44" fill="none"
    xmlns="http://www.w3.org/2000/svg">
    <g clip-path="url(#clip0_3736_756)">

        <path d="M17.6376 26.3506C16.7014 26.3278 15.7693 26.2992 14.8413 26.2649C14.5146 23.6247 14.1878 20.9804 13.8611 18.332C14.9459 18.4006 16.0389 18.4562 17.1401 18.4987L17.6376 26.3506Z" fill="#FF9D00"/>
        <path d="M20.4558 26.4046C19.5147 26.3932 18.5753 26.3752 17.6375 26.3507C17.4186 22.8756 17.2005 19.4022 16.9832 15.9304C18.1366 15.9794 19.2933 16.0113 20.4533 16.026L20.4558 26.4046Z" fill="#4C8ED6"/>
        <path d="M23.2765 26.4217C22.3388 26.4217 21.3985 26.4151 20.4558 26.4021V13.4551C21.6697 13.4715 22.8812 13.4666 24.0902 13.4404C23.819 17.77 23.5478 22.097 23.2765 26.4217Z" fill="#E90081"/>
        <path d="M26.0777 26.407C25.1497 26.4168 24.216 26.4217 23.2766 26.4217C23.6034 21.2443 23.9301 16.0627 24.2569 10.8771C25.519 10.8452 26.7737 10.7889 28.0162 10.7104C27.3709 15.9598 26.7247 21.192 26.0777 26.407Z" fill="#52C94D"/>
        <path opacity="0.15" d="M17.6375 26.3506L16.4709 18.4692L17.1449 18.4962L17.6375 26.3506Z" fill="black"/>
        <path opacity="0.15" d="M20.4557 26.4046L19.696 16.0063H20.4557C20.4557 19.479 20.4557 26.4046 20.4557 26.4046Z" fill="black"/>
        <path opacity="0.15" d="M23.2742 26.4217L23.3379 13.4527L24.0903 13.4404C23.8182 17.7708 23.2742 26.4217 23.2742 26.4217Z" fill="black"/>
        <path d="M28.2645 7.00328C28.2953 6.73433 28.5382 6.54128 28.8072 6.57208C29.0761 6.60288 29.2692 6.84588 29.2384 7.11478L27.0695 26.0536C27.046 26.2588 26.8964 26.4272 26.6954 26.4748C22.6158 27.4404 18.367 27.4404 14.2874 26.4748C14.0864 26.4272 13.9368 26.2588 13.9133 26.0536L11.7469 7.11473C11.7161 6.84578 11.9092 6.60283 12.1782 6.57208C12.4471 6.54133 12.6901 6.73438 12.7208 7.00333L14.8478 25.5978C18.5646 26.4257 22.4182 26.4257 26.135 25.5978L28.2645 7.00328Z" fill="#272829"/>
        <path d="M25.4947 1.40762C25.4352 1.74071 25.1169 1.96248 24.7838 1.90295C24.4507 1.84343 24.229 1.52515 24.2885 1.19206L24.4037 0.547532C24.4548 0.261446 24.6999 0.0506403 24.9904 0.0428628L26.5466 0.00120128C26.9033 -0.00834939 27.1927 0.287817 27.1749 0.644247L27.1381 1.37945C27.1212 1.7174 26.8336 1.97766 26.4956 1.96076C26.1577 1.94386 25.8974 1.6562 25.9143 1.31826L25.918 1.24381L25.5221 1.25441L25.4947 1.40762Z" fill="#272829"/>
        <path d="M13.2289 4.04421C13.202 4.31357 12.9619 4.51015 12.6925 4.4833C12.4232 4.45645 12.2266 4.21632 12.2534 3.94696C12.3347 3.1317 12.3347 3.1317 12.4176 2.3001C12.4409 2.06617 12.6271 1.88174 12.8612 1.86058C13.397 1.81216 13.7926 1.77547 14.8085 1.68051C17.279 1.44959 18.4269 1.34872 19.8278 1.24844C22.9915 1.02199 25.6084 0.965911 28.1085 1.11197C28.3553 1.12639 28.5527 1.32233 28.569 1.56899C28.6228 2.38502 28.6775 3.18142 28.733 3.95821C28.7523 4.22822 28.549 4.46274 28.279 4.48202C28.009 4.50131 27.7745 4.29806 27.7552 4.02805C27.7095 3.38778 27.6643 2.73425 27.6197 2.06747C25.296 1.95436 22.8398 2.01562 19.8978 2.22621C18.5062 2.32582 17.3633 2.42626 14.8998 2.65653C14.147 2.72689 13.7343 2.7653 13.3529 2.8002C13.3071 3.25977 13.2943 3.38746 13.2289 4.04421Z" fill="#272829"/>
        <path d="M29.1847 4.72341C23.3869 4.47507 17.5922 4.47506 11.8005 4.7234C11.7031 5.19092 11.6058 5.65327 11.5084 6.11042C17.5008 6.37517 23.4902 6.37517 29.4768 6.11042C29.3794 5.65327 29.282 5.19097 29.1847 4.72341ZM30.1002 7.06327C23.6984 7.36457 17.2933 7.36457 10.885 7.06327C10.5825 7.04902 10.3652 6.76667 10.4288 6.47062C10.5919 5.71212 10.7551 4.93895 10.9182 4.15105C10.9636 3.93151 11.1523 3.7708 11.3762 3.76078C17.4505 3.48892 23.5281 3.48892 29.6089 3.76078C29.8329 3.77079 30.0216 3.93151 30.067 4.15105C30.2301 4.93895 30.3932 5.71212 30.5564 6.47062C30.62 6.76662 30.4027 7.04902 30.1002 7.06327Z" fill="#272829"/>
        <path d="M5.07541 36.869C4.99963 36.8002 4.91759 36.7387 4.83035 36.6852C4.69213 36.5984 4.54705 36.523 4.39657 36.4597C4.21716 36.3825 4.03198 36.3194 3.84272 36.271C3.64416 36.2201 3.43994 36.1946 3.23496 36.1951C2.94745 36.1744 2.66083 36.2457 2.41643 36.3985C2.23749 36.5313 2.13643 36.7444 2.14685 36.967C2.14204 37.0916 2.17725 37.2144 2.24733 37.3175C2.326 37.4199 2.42645 37.5036 2.54141 37.5625C2.69736 37.6445 2.86169 37.7094 3.03155 37.7561C3.2276 37.8133 3.45388 37.8746 3.71039 37.9399C4.03714 38.0298 4.34021 38.1262 4.61959 38.2291C4.87 38.3192 5.1042 38.4491 5.31313 38.6139C5.49891 38.7634 5.6488 38.9527 5.7518 39.1677C5.8615 39.4177 5.91425 39.6889 5.9062 39.9618C5.9149 40.287 5.84335 40.6094 5.6979 40.9004C5.566 41.1529 5.37413 41.3692 5.13913 41.5302C4.89339 41.6963 4.61929 41.8159 4.3304 41.8831C4.01652 41.9578 3.69484 41.9948 3.37219 41.9934C2.85622 41.9933 2.34319 41.9156 1.85032 41.763C1.36794 41.6178 0.912026 41.3961 0.5 41.1062L1.08816 39.9593C1.18455 40.0452 1.28969 40.1208 1.40185 40.1848C1.5738 40.2892 1.75225 40.3825 1.93609 40.4641C2.15644 40.5656 2.38522 40.6476 2.61983 40.7092C2.87209 40.7735 3.13147 40.8056 3.39179 40.8048C4.12373 40.8048 4.4897 40.5703 4.4897 40.1014C4.49336 39.9657 4.44912 39.8329 4.36472 39.7265C4.26589 39.6123 4.14393 39.5204 4.00692 39.4569C3.8272 39.3704 3.64023 39.2999 3.44816 39.2462L2.71296 39.0329C2.4223 38.95 2.13809 38.846 1.86258 38.7217C1.64297 38.6296 1.43946 38.503 1.25971 38.3468C1.10532 38.2116 0.982359 38.0443 0.89946 37.8566C0.814366 37.6407 0.773531 37.4098 0.779377 37.1778C0.773818 36.8592 0.839985 36.5434 0.97298 36.2539C1.09628 35.9908 1.2792 35.76 1.50723 35.5799C1.74426 35.3955 2.0135 35.2567 2.30124 35.1707C2.61906 35.0748 2.94957 35.0277 3.28151 35.031C3.7342 35.0259 4.18412 35.1023 4.60979 35.2565C4.98065 35.3888 5.3344 35.5648 5.66355 35.7809L5.07541 36.869Z" fill="#272829"/>
        <path d="M10.3639 41.9075L8.89347 39.7215L8.19992 40.4052V41.9075H6.91577V34.874H8.20727V39.1406L10.2291 36.8664H11.6064L9.72672 39.0059L11.7412 41.9075H10.3639Z" fill="#272829"/>
        <path d="M12.425 41.9075V36.8591H13.7165V41.9075H12.425Z" fill="#272829"/>
        <path d="M15.0055 34.8152H16.297V40.2287C16.2871 40.385 16.3351 40.5394 16.4318 40.6625C16.5309 40.7683 16.6717 40.8249 16.8165 40.8169C16.8996 40.8144 16.9819 40.8012 17.0616 40.7777C17.1523 40.7531 17.2408 40.7212 17.3263 40.6821L17.5003 41.6624C17.3068 41.7527 17.1025 41.8178 16.8925 41.856C16.6868 41.8985 16.4776 41.9215 16.2676 41.9246C15.9241 41.9461 15.5862 41.8297 15.329 41.6011C15.0987 41.3526 14.9816 41.02 15.0055 40.6821V34.8152Z" fill="#272829"/>
        <path d="M18.1938 34.825H19.4854V40.2385C19.4716 40.3974 19.518 40.5557 19.6152 40.6821C19.7143 40.7879 19.8552 40.8444 20 40.8365C20.083 40.834 20.1654 40.8208 20.2451 40.7972C20.3358 40.7727 20.4243 40.7407 20.5097 40.7017L20.6837 41.6819C20.4903 41.7723 20.286 41.8374 20.076 41.8755C19.8695 41.9183 19.6594 41.9412 19.4486 41.9442C19.1051 41.9657 18.7673 41.8493 18.51 41.6207C18.2772 41.3663 18.1625 41.0255 18.1938 40.6821V34.825Z" fill="#272829"/>
        <path d="M27.3127 40.2362C27.0693 40.4883 26.7575 40.6637 26.4158 40.7411C26.2552 40.7795 26.0907 40.7992 25.9256 40.7999C25.6427 40.8025 25.3634 40.7361 25.112 40.6063C24.8685 40.4805 24.6526 40.3072 24.4773 40.0965C24.2972 39.8785 24.1585 39.6293 24.068 39.3613C23.9714 39.0806 23.9226 38.7857 23.9234 38.4889C23.9243 38.213 23.9665 37.9387 24.0484 37.6753C24.1269 37.4101 24.2523 37.1611 24.4185 36.9401C24.5846 36.7232 24.7952 36.5444 25.036 36.4156C25.305 36.2751 25.6051 36.2051 25.9085 36.2122C26.0676 36.2129 26.2262 36.231 26.3815 36.2661C26.5427 36.3016 26.6985 36.3585 26.8446 36.4352C26.9984 36.5172 27.1382 36.6231 27.2588 36.7489C27.3952 36.8926 27.5062 37.0583 27.5872 37.239L28.6091 36.5357C28.377 36.0855 28.0206 35.7113 27.5823 35.4574C27.0866 35.172 26.5219 35.0287 25.9501 35.0432C25.4583 35.0345 24.9708 35.1367 24.5239 35.3422C23.7261 35.715 23.109 36.3893 22.8084 37.217C22.5 38.0314 22.5069 38.9317 22.828 39.7412C22.9871 40.1546 23.2186 40.5364 23.5117 40.8685C23.8071 41.1971 24.1622 41.4665 24.5582 41.6625C24.9732 41.8706 25.432 41.9764 25.8962 41.9713C26.1821 41.9703 26.4668 41.9349 26.7442 41.8659C27.0272 41.7974 27.3006 41.6937 27.5578 41.5571C27.8075 41.4266 28.0377 41.2616 28.2415 41.067C28.4417 40.8746 28.601 40.6437 28.7096 40.3882L27.6215 39.7632C27.5497 39.9392 27.4449 40.0997 27.3127 40.2362Z" fill="#272829"/>
        <path d="M34.0743 40.4371V36.8689H32.7828V40.0009C32.6598 40.2796 32.4612 40.5181 32.2093 40.6895C31.9919 40.8356 31.7361 40.9141 31.4741 40.915C30.9154 40.915 30.636 40.5261 30.636 39.7484V36.8689H29.3445V40.0278C29.3445 40.6813 29.4793 41.1755 29.7488 41.5105C30.0449 41.8516 30.4845 42.0332 30.935 42.0006C31.3387 42.0054 31.738 41.9165 32.1015 41.7408C32.4568 41.5658 32.757 41.2961 32.969 40.9615L32.9984 41.3659C33.0151 41.54 33.104 41.6991 33.2435 41.8046C33.4093 41.9171 33.607 41.9729 33.8072 41.9638C33.8782 41.9638 33.9566 41.9638 34.0522 41.9638C34.1609 41.9539 34.2689 41.9375 34.3757 41.9148V40.8169C34.284 40.8222 34.1946 40.7873 34.1306 40.7214C34.0813 40.6353 34.0615 40.5355 34.0743 40.4371Z" fill="#272829"/>
        <path d="M40.3064 38.376C40.1958 38.0719 40.0296 37.791 39.8163 37.5477C39.6107 37.3145 39.3608 37.1245 39.0811 36.9889C38.7863 36.8492 38.4637 36.778 38.1376 36.7806C37.7812 36.7702 37.4285 36.8548 37.1156 37.0257C36.8207 37.1953 36.5723 37.4352 36.3927 37.7241V36.8566H35.2654V43.9636H36.5569V41.0228C36.7193 41.3201 36.9589 41.5682 37.2504 41.7408C37.5667 41.9229 37.9271 42.0144 38.292 42.0055C38.5995 42.0082 38.9034 41.9385 39.1791 41.8021C39.4488 41.6672 39.6868 41.4768 39.8775 41.2433C40.0801 40.9942 40.2354 40.7102 40.3358 40.4052C40.4469 40.0727 40.5024 39.7241 40.5 39.3735C40.4956 39.0321 40.4301 38.6943 40.3064 38.376ZM37.8557 40.7066C37.1316 40.7066 36.5446 40.1196 36.5446 39.3955C36.5446 38.6714 37.1316 38.0844 37.8557 38.0844C38.5798 38.0844 39.1668 38.6714 39.1668 39.3955C39.1668 39.7437 39.0284 40.0775 38.782 40.3235C38.5355 40.5694 38.2014 40.7073 37.8533 40.7066H37.8557Z" fill="#272829"/>
        <path d="M13.0719 36.276C13.4875 36.276 13.8243 35.9391 13.8243 35.5236C13.8243 35.1081 13.4875 34.7712 13.0719 34.7712C12.6564 34.7712 12.3196 35.1081 12.3196 35.5236C12.3196 35.9391 12.6564 36.276 13.0719 36.276Z" fill="#272829"/>
    </g>
    <defs>
        <clipPath id="clip0_3736_756">
            <rect width="40" height="44" fill="white" transform="translate(0.5 0.000976562)"/>
        </clipPath>
    </defs>
</svg>
