<svg width="120" height="120" viewBox="0 0 120 120" fill="none" xmlns="http://www.w3.org/2000/svg">
<path fill-rule="evenodd" clip-rule="evenodd" d="M28.3486 18C28.3486 15.7909 30.1394 14 32.3486 14H61.8714C64.0805 14 65.8714 15.7909 65.8714 18V102C65.8714 104.209 64.0805 106 61.8714 106H10C7.79086 106 6 104.209 6 102V29C6 26.7909 7.79086 25 10 25H28.3486V18ZM32.3486 36H61.8714V18L32.3486 18V36ZM61.8714 40H32.3486V80H61.8714V40ZM61.8714 84H32.3486V102H61.8714V84ZM28.3486 102V29L10 29V102H28.3486ZM90.7724 27.7501C92.8967 27.1898 95.0752 28.4476 95.6522 30.5673L113.4 95.7713C113.984 97.9147 112.709 100.123 110.561 100.69L92.8418 105.363C90.7175 105.924 88.539 104.666 87.962 102.546L70.2138 37.3422C69.6304 35.1988 70.9053 32.9905 73.0532 32.4239L90.7724 27.7501ZM91.7926 31.6179L74.0734 36.2917L91.8216 101.496L109.541 96.8219L91.7926 31.6179Z" fill="currentColor"/>
</svg>
