<svg width="120" height="120" viewBox="0 0 120 120" fill="none" xmlns="http://www.w3.org/2000/svg">
<path fill-rule="evenodd" clip-rule="evenodd" d="M27.1362 14C27.1575 14 27.1787 14 27.2 14L92.8638 14C93.3686 13.9999 93.8601 13.9999 94.2765 14.0339C94.7337 14.0713 95.2731 14.1594 95.816 14.436C96.5686 14.8195 97.1805 15.4314 97.564 16.184C97.8406 16.7269 97.9288 17.2664 97.9661 17.7236C98.0001 18.1399 98.0001 18.6314 98 19.1362V98.7037C98.0001 99.5179 98.0001 100.261 97.945 100.862C97.8887 101.476 97.7548 102.263 97.2543 102.963C96.6036 103.874 95.6011 104.47 94.4904 104.607C93.6361 104.713 92.8808 104.455 92.3141 104.211C91.7598 103.973 91.1066 103.618 90.391 103.229L60.5728 87.0316C60.2745 86.8696 60.1226 86.7879 60.0093 86.7345C60.0061 86.7329 60.003 86.7315 60 86.7301C59.997 86.7315 59.9939 86.7329 59.9907 86.7345C59.8774 86.7879 59.7255 86.8696 59.4272 87.0316L29.609 103.229C28.8934 103.618 28.2402 103.973 27.6859 104.211C27.1192 104.455 26.3639 104.713 25.5096 104.607C24.3989 104.47 23.3965 103.874 22.7457 102.963C22.2452 102.263 22.1113 101.476 22.055 100.862C21.9999 100.261 21.9999 99.5179 22 98.7036L22 19.2C22 19.1787 22 19.1575 22 19.1362C21.9999 18.6314 21.9999 18.1399 22.0339 17.7235C22.0713 17.2664 22.1594 16.7269 22.436 16.184C22.8195 15.4314 23.4314 14.8195 24.1841 14.436C24.7269 14.1594 25.2664 14.0713 25.7236 14.0339C26.1399 13.9999 26.6315 13.9999 27.1362 14ZM26.0229 18.0229C26.0221 18.0312 26.0214 18.04 26.0206 18.0493C26.0016 18.2824 26 18.607 26 19.2V98.6201C26 99.5456 26.002 100.101 26.0383 100.497C26.0404 100.52 26.0426 100.542 26.0448 100.562C26.0637 100.554 26.0839 100.546 26.1055 100.537C26.4702 100.38 26.9596 100.116 27.7728 99.6746L57.5179 83.5167C57.5559 83.4961 57.5949 83.4747 57.6349 83.4528C58.0649 83.2174 58.6058 82.9212 59.2091 82.7995C59.7311 82.6942 60.2689 82.6942 60.791 82.7995C61.3943 82.9212 61.9352 83.2174 62.3651 83.4528C62.4051 83.4747 62.4441 83.4961 62.4821 83.5167L92.2272 99.6746C93.0405 100.116 93.5298 100.38 93.8945 100.537C93.9161 100.546 93.9364 100.554 93.9552 100.562C93.9574 100.542 93.9596 100.52 93.9618 100.497C93.998 100.101 94 99.5456 94 98.6201V19.2C94 18.607 93.9985 18.2824 93.9794 18.0493C93.9787 18.04 93.9779 18.0312 93.9771 18.0229C93.9688 18.0221 93.96 18.0214 93.9508 18.0206C93.7176 18.0016 93.3931 18 92.8 18H27.2C26.607 18 26.2825 18.0016 26.0493 18.0206C26.04 18.0214 26.0312 18.0221 26.0229 18.0229Z" fill="currentColor"/>
</svg>
