<svg width="120" height="120" viewBox="0 0 120 120" fill="none" xmlns="http://www.w3.org/2000/svg">
<path fill-rule="evenodd" clip-rule="evenodd" d="M22 18C22 15.7909 23.7909 14 26 14H94C96.2091 14 98 15.7909 98 18V102C98 104.209 96.2091 106 94 106H26C23.7909 106 22 104.209 22 102V18ZM32.08 18L26 18V102H32.08V18ZM36.08 18V102H94V18H36.08ZM48.88 39.2941C48.88 38.1895 49.7754 37.2941 50.88 37.2941H80.6389C80.6389 37.2941 80.64 37.2941 80.64 39.2941C80.64 41.2941 80.6397 41.2941 80.6397 41.2941H50.88C49.7754 41.2941 48.88 40.3987 48.88 39.2941ZM82.64 39.2941C82.64 40.3987 81.7443 41.2941 80.6397 41.2941L80.64 39.2941V37.2941C81.7446 37.2941 82.64 38.1895 82.64 39.2941ZM48.88 60C48.88 58.8954 49.7754 58 50.88 58H80.6389C80.6389 58 80.64 58 80.64 60C80.64 62 80.6397 62 80.6397 62H50.88C49.7754 62 48.88 61.1046 48.88 60ZM82.64 60C82.64 61.1046 81.7443 62 80.6397 62L80.64 60V58C81.7446 58 82.64 58.8954 82.64 60Z" fill="currentColor"/>
</svg>
