<svg width="16" height="16" viewBox="0 0 16 16" fill="none" xmlns="http://www.w3.org/2000/svg">
<path fill-rule="evenodd" clip-rule="evenodd" d="M4.5 2C4.77614 2 5 2.22386 5 2.5V13.5C5 13.7761 4.77614 14 4.5 14C4.22386 14 4 13.7761 4 13.5V2.5C4 2.22386 4.22386 2 4.5 2Z" fill="currentColor"/>
<path fill-rule="evenodd" clip-rule="evenodd" d="M8 2C8.27614 2 8.5 2.22386 8.5 2.5V13.5C8.5 13.7761 8.27614 14 8 14C7.72386 14 7.5 13.7761 7.5 13.5V2.5C7.5 2.22386 7.72386 2 8 2Z" fill="currentColor"/>
<path fill-rule="evenodd" clip-rule="evenodd" d="M11.5 2C11.7761 2 12 2.22386 12 2.5V13.5C12 13.7761 11.7761 14 11.5 14C11.2239 14 11 13.7761 11 13.5V2.5C11 2.22386 11.2239 2 11.5 2Z" fill="currentColor"/>
</svg>
