<svg width="16" height="16" viewBox="0 0 16 16" fill="none" xmlns="http://www.w3.org/2000/svg">
<path d="M8 8L2.5 5.5L8 3L13.5 5.5L8 8Z" fill="currentColor"/>
<path fill-rule="evenodd" clip-rule="evenodd" d="M7.7931 2.54482C7.92456 2.48506 8.07544 2.48506 8.2069 2.54482L13.7069 5.04482C13.8854 5.12595 14 5.30393 14 5.5C14 5.69607 13.8854 5.87405 13.7069 5.95518L8.2069 8.45518C8.07544 8.51494 7.92456 8.51494 7.7931 8.45518L2.2931 5.95518C2.1146 5.87405 2 5.69607 2 5.5C2 5.30393 2.1146 5.12595 2.2931 5.04482L7.7931 2.54482ZM3.7083 5.5L8 7.45077L12.2917 5.5L8 3.54923L3.7083 5.5Z" fill="currentColor"/>
<path fill-rule="evenodd" clip-rule="evenodd" d="M2.04482 7.7931C2.15909 7.54171 2.45551 7.43055 2.7069 7.54482L8 9.95077L13.2931 7.54482C13.5445 7.43055 13.8409 7.54171 13.9552 7.7931C14.0695 8.04449 13.9583 8.34091 13.7069 8.45518L8.2069 10.9552C8.07544 11.0149 7.92456 11.0149 7.7931 10.9552L2.2931 8.45518C2.04171 8.34091 1.93055 8.04449 2.04482 7.7931Z" fill="currentColor"/>
<path fill-rule="evenodd" clip-rule="evenodd" d="M2.04482 10.2931C2.15909 10.0417 2.45551 9.93055 2.7069 10.0448L8 12.4508L13.2931 10.0448C13.5445 9.93055 13.8409 10.0417 13.9552 10.2931C14.0695 10.5445 13.9583 10.8409 13.7069 10.9552L8.2069 13.4552C8.07544 13.5149 7.92456 13.5149 7.7931 13.4552L2.2931 10.9552C2.04171 10.8409 1.93055 10.5445 2.04482 10.2931Z" fill="currentColor"/>
</svg>
