<svg width="16" height="16" viewBox="0 0 16 16" fill="none" xmlns="http://www.w3.org/2000/svg">
<path d="M14.3538 2.35219C14.5487 2.15724 14.5487 1.84116 14.3538 1.64621C14.1588 1.45126 13.8428 1.45126 13.6478 1.64621L9.41195 5.88207C9.217 6.07702 9.217 6.3931 9.41195 6.58805C9.6069 6.783 9.92298 6.783 10.1179 6.58805L12.2248 4.48121C13.068 5.63653 12.9681 7.2656 11.9251 8.30866L8.302 11.9317C7.25894 12.9748 5.62986 13.0747 4.47455 12.2314L6.58805 10.1179C6.783 9.92298 6.783 9.6069 6.58805 9.41195C6.3931 9.217 6.07702 9.217 5.88207 9.41195L1.64621 13.6478C1.45126 13.8428 1.45126 14.1588 1.64621 14.3538C1.84116 14.5487 2.15724 14.5487 2.35219 14.3538L3.77195 12.934C5.31787 14.1582 7.57004 14.0561 8.99823 12.628L12.6213 9.00489C14.0495 7.5767 14.1515 5.32453 12.9274 3.77861L14.3538 2.35219Z" fill="currentColor"/>
<path d="M7.74768 4.13128L4.12462 7.75434C3.38994 8.48902 3.12317 9.51443 3.3243 10.4602L2.53392 11.2506C1.99675 9.84409 2.29491 8.1916 3.42839 7.05811L7.05145 3.43505C8.18494 2.30157 9.83743 2.00341 11.244 2.54058L10.4536 3.33096C9.50777 3.12983 8.48236 3.3966 7.74768 4.13128Z" fill="currentColor"/>
</svg>
