<svg width="16" height="16" viewBox="0 0 16 16" fill="none" xmlns="http://www.w3.org/2000/svg">
<path d="M8.10355 5.35355C8.29882 5.15829 8.29882 4.84171 8.10355 4.64645C7.90829 4.45118 7.59171 4.45118 7.39645 4.64645L4.04289 8L7.39645 11.3536C7.59171 11.5488 7.90829 11.5488 8.10355 11.3536C8.29882 11.1583 8.29882 10.8417 8.10355 10.6464L5.95711 8.5H11.5C11.7761 8.5 12 8.27614 12 8C12 7.72386 11.7761 7.5 11.5 7.5H5.95711L8.10355 5.35355Z" fill="currentColor"/>
<path fill-rule="evenodd" clip-rule="evenodd" d="M15 8C15 11.866 11.866 15 8 15C4.13401 15 1 11.866 1 8C1 4.13401 4.13401 1 8 1C11.866 1 15 4.13401 15 8ZM14 8C14 11.3137 11.3137 14 8 14C4.68629 14 2 11.3137 2 8C2 4.68629 4.68629 2 8 2C11.3137 2 14 4.68629 14 8Z" fill="currentColor"/>
</svg>
