<svg width="16" height="16" viewBox="0 0 16 16" fill="none" xmlns="http://www.w3.org/2000/svg">
<path fill-rule="evenodd" clip-rule="evenodd" d="M2.65805 2.65805C2.86878 2.44732 3.21045 2.44732 3.42119 2.65805L8 7.23686L12.5788 2.65805C12.7895 2.44732 13.1312 2.44732 13.342 2.65805C13.5527 2.86878 13.5527 3.21045 13.342 3.42119L8.76314 8L13.342 12.5788C13.5527 12.7895 13.5527 13.1312 13.342 13.342C13.1312 13.5527 12.7895 13.5527 12.5788 13.342L8 8.76314L3.42119 13.342C3.21045 13.5527 2.86878 13.5527 2.65805 13.342C2.44732 13.1312 2.44732 12.7895 2.65805 12.5788L7.23686 8L2.65805 3.42119C2.44732 3.21045 2.44732 2.86878 2.65805 2.65805Z" fill="currentColor"/>
</svg>
