<svg width="16" height="16" viewBox="0 0 16 16" fill="none" xmlns="http://www.w3.org/2000/svg">
<path fill-rule="evenodd" clip-rule="evenodd" d="M3 2C3 1.72386 3.22386 1.5 3.5 1.5H9C9.13261 1.5 9.25979 1.55268 9.35355 1.64645L12.8536 5.14645C12.9473 5.24021 13 5.36739 13 5.5V14C13 14.2761 12.7761 14.5 12.5 14.5H3.5C3.22386 14.5 3 14.2761 3 14V2ZM4 2.5V13.5H12V6H9C8.72386 6 8.5 5.77614 8.5 5.5V2.5H4ZM9.5 3.20711L11.2929 5H9.5V3.20711Z" fill="currentColor"/>
<path fill-rule="evenodd" clip-rule="evenodd" d="M5 7.7C5 7.47909 5.17909 7.3 5.4 7.3H9.9C10.1209 7.3 10.3 7.47909 10.3 7.7C10.3 7.92092 10.1209 8.1 9.9 8.1H5.4C5.17909 8.1 5 7.92092 5 7.7ZM5 9.7C5 9.47909 5.17909 9.3 5.4 9.3H9.9C10.1209 9.3 10.3 9.47909 10.3 9.7C10.3 9.92091 10.1209 10.1 9.9 10.1H5.4C5.17909 10.1 5 9.92091 5 9.7ZM5 11.7C5 11.4791 5.17909 11.3 5.4 11.3H7.4C7.62091 11.3 7.8 11.4791 7.8 11.7C7.8 11.9209 7.62091 12.1 7.4 12.1H5.4C5.17909 12.1 5 11.9209 5 11.7Z" fill="currentColor"/>
</svg>
