<svg width="16" height="16" viewBox="0 0 16 16" fill="currentColor" xmlns="http://www.w3.org/2000/svg">
<path d="M12.8682 7.18148C13.0439 7.00574 13.0439 6.72082 12.8682 6.54508C12.6924 6.36935 12.4075 6.36935 12.2318 6.54508L8.54997 10.2269L8.54998 2.5C8.54998 2.22386 8.32612 2 8.04998 2C7.77383 2 7.54998 2.22386 7.54998 2.5L7.54997 10.2269L3.86817 6.54508C3.69244 6.36935 3.40751 6.36935 3.23178 6.54508C3.05604 6.72082 3.05604 7.00574 3.23178 7.18148L8.04997 11.9997L12.8682 7.18148Z" fill="currentColor"/>
<path fill-rule="evenodd" clip-rule="evenodd" d="M3 13.5C3 13.2239 3.22386 13 3.5 13H12.5C12.7761 13 13 13.2239 13 13.5C13 13.7761 12.7761 14 12.5 14H3.5C3.22386 14 3 13.7761 3 13.5Z" fill="currentColor"/>
</svg>
