<svg width="16" height="16" viewBox="0 0 16 16" fill="none" xmlns="http://www.w3.org/2000/svg">
<path fill-rule="evenodd" clip-rule="evenodd" d="M7.99505 3C10.5572 3.00001 13.6982 5.10064 15.5271 7.71326C15.6476 7.88542 15.6476 8.11456 15.5271 8.28672C13.6982 10.8995 10.5622 13 8.00002 13C5.43783 13 2.30182 10.8995 0.472937 8.28672C0.352426 8.11456 0.352429 7.88542 0.472943 7.71326C2.30183 5.10063 5.43287 2.99999 7.99505 3ZM1.5 8C3.14576 10.1927 5.9017 12 8.00002 12C10.0983 12 12.8543 10.1927 14.5 8C12.8543 5.80738 10.0934 4.00001 7.99504 4C5.89671 3.99999 3.14576 5.80738 1.5 8Z" fill="currentColor"/>
<path fill-rule="evenodd" clip-rule="evenodd" d="M7.99505 9.39911C8.99505 9.39911 9.49505 8.89911 9.49505 7.89911C9.49505 6.89911 8.99504 6.39911 7.99505 6.39911C6.99505 6.39911 6.49505 6.89911 6.49505 7.89911C6.49505 8.89911 6.99505 9.39911 7.99505 9.39911ZM7.99505 10.3991C9.49505 10.3991 10.4951 9.39911 10.4951 7.89911C10.4951 6.39911 9.49505 5.39911 7.99505 5.39911C6.49505 5.39911 5.49505 6.39911 5.49505 7.89911C5.49505 9.39911 6.49505 10.3991 7.99505 10.3991Z" fill="currentColor"/>
</svg>
