<svg width="20" height="20" viewBox="0 0 20 20" fill="none" xmlns="http://www.w3.org/2000/svg">
<path d="M3.125 3.75C2.77982 3.75 2.5 4.02982 2.5 4.375C2.5 4.72018 2.77982 5 3.125 5H16.875C17.2202 5 17.5 4.72018 17.5 4.375C17.5 4.02982 17.2202 3.75 16.875 3.75H3.125Z" fill="#272829"/>
<path d="M3.125 7.5C2.77982 7.5 2.5 7.77982 2.5 8.125C2.5 8.47018 2.77982 8.75 3.125 8.75H13.125C13.4702 8.75 13.75 8.47018 13.75 8.125C13.75 7.77982 13.4702 7.5 13.125 7.5H3.125Z" fill="#272829"/>
<path d="M2.5 11.875C2.5 11.5298 2.77982 11.25 3.125 11.25H9.375C9.72018 11.25 10 11.5298 10 11.875C10 12.2202 9.72018 12.5 9.375 12.5H3.125C2.77982 12.5 2.5 12.2202 2.5 11.875Z" fill="#272829"/>
<path d="M3.125 15C2.77982 15 2.5 15.2798 2.5 15.625C2.5 15.9702 2.77982 16.25 3.125 16.25H5.625C5.97018 16.25 6.25 15.9702 6.25 15.625C6.25 15.2798 5.97018 15 5.625 15H3.125Z" fill="#272829"/>
</svg>
