<svg width="16" height="16" viewBox="0 0 16 16" fill="none" xmlns="http://www.w3.org/2000/svg">
<path d="M13.2 12.8V3.2C13.2 2.8134 12.8866 2.5 12.5 2.5C12.1134 2.5 11.8 2.8134 11.8 3.2V12.8C11.8 13.1866 12.1134 13.5 12.5 13.5C12.8866 13.5 13.2 13.1866 13.2 12.8Z" fill="currentColor"/>
<path d="M4.20005 12.8V4.2C4.20005 3.8134 3.88665 3.5 3.50005 3.5C3.11345 3.5 2.80005 3.8134 2.80005 4.2V12.8C2.80005 13.1866 3.11345 13.5 3.50005 13.5C3.88665 13.5 4.20005 13.1866 4.20005 12.8Z" fill="currentColor"/>
<path d="M7.20005 12.8V8.2C7.20005 7.8134 6.88665 7.5 6.50005 7.5C6.11345 7.5 5.80005 7.8134 5.80005 8.2V12.8C5.80005 13.1866 6.11345 13.5 6.50005 13.5C6.88665 13.5 7.20005 13.1866 7.20005 12.8Z" fill="currentColor"/>
<path d="M10.2 12.8V5.2C10.2 4.8134 9.88665 4.5 9.50005 4.5C9.11345 4.5 8.80005 4.8134 8.80005 5.2V12.8C8.80005 13.1866 9.11345 13.5 9.50005 13.5C9.88665 13.5 10.2 13.1866 10.2 12.8Z" fill="currentColor"/>
</svg>
