<svg width="16" height="16" viewBox="0 0 16 16" fill="none" xmlns="http://www.w3.org/2000/svg">
<path fill-rule="evenodd" clip-rule="evenodd" d="M1 4C1 3.72386 1.22386 3.5 1.5 3.5H11.5C11.7761 3.5 12 3.72386 12 4C12 4.27614 11.7761 4.5 11.5 4.5H1.5C1.22386 4.5 1 4.27614 1 4ZM1 12C1 11.7239 1.22386 11.5 1.5 11.5H11.5C11.7761 11.5 12 11.7239 12 12C12 12.2761 11.7761 12.5 11.5 12.5H1.5C1.22386 12.5 1 12.2761 1 12ZM1.5 7.5C1.22386 7.5 1 7.72386 1 8C1 8.27614 1.22386 8.5 1.5 8.5H11.5C11.7761 8.5 12 8.27614 12 8C12 7.72386 11.7761 7.5 11.5 7.5H1.5Z" fill="currentColor"/>
<path fill-rule="evenodd" clip-rule="evenodd" d="M14 8C14 7.72386 14.2239 7.5 14.5 7.5C14.7761 7.5 15 7.72386 15 8C15 8.27614 14.7761 8.5 14.5 8.5C14.2239 8.5 14 8.27614 14 8Z" fill="currentColor"/>
<path fill-rule="evenodd" clip-rule="evenodd" d="M14 12C14 11.7239 14.2239 11.5 14.5 11.5C14.7761 11.5 15 11.7239 15 12C15 12.2761 14.7761 12.5 14.5 12.5C14.2239 12.5 14 12.2761 14 12Z" fill="currentColor"/>
<path fill-rule="evenodd" clip-rule="evenodd" d="M14 4C14 3.72386 14.2239 3.5 14.5 3.5C14.7761 3.5 15 3.72386 15 4C15 4.27614 14.7761 4.5 14.5 4.5C14.2239 4.5 14 4.27614 14 4Z" fill="currentColor"/>
</svg>
