<svg width="16" height="16" viewBox="0 0 16 16" fill="none" xmlns="http://www.w3.org/2000/svg">
<path fill-rule="evenodd" clip-rule="evenodd" d="M8.63784 1.01937C8.85225 1.08086 9 1.27694 9 1.5V6H12.5C12.6818 6 12.8492 6.09863 12.9373 6.25761C13.0254 6.41659 13.0203 6.61086 12.924 6.765L7.924 14.765C7.80578 14.9541 7.57657 15.0421 7.36216 14.9806C7.14775 14.9191 7 14.7231 7 14.5V10H3.5C3.31824 10 3.15079 9.90136 3.06268 9.74238C2.97457 9.5834 2.97967 9.38913 3.076 9.235L8.076 1.235C8.19422 1.04585 8.42343 0.95788 8.63784 1.01937ZM4.40212 9H8V12.7566L11.5979 7H8V3.24339L4.40212 9Z" fill="currentColor"/>
</svg>
