<svg width="16" height="16" viewBox="0 0 16 16" fill="none" xmlns="http://www.w3.org/2000/svg">
<path d="M9.17883 10.525L7.15948 12.5444C6.1372 13.5667 4.47974 13.5667 3.45745 12.5444C2.43516 11.5221 2.43516 9.86463 3.45745 8.84235L5.4768 6.823L4.63543 5.98162L2.61608 8.00098C1.12911 9.48794 1.12911 11.8988 2.61608 13.3858C4.10304 14.8727 6.51389 14.8727 8.00086 13.3858L10.0202 11.3664L9.17883 10.525Z" fill="currentColor"/>
<path d="M10.525 9.17883L11.3664 10.0202L13.3856 8.00097C14.8726 6.51401 14.8726 4.10316 13.3856 2.6162C11.8987 1.12923 9.48782 1.12924 8.00085 2.6162L5.98162 4.63543L6.82299 5.4768L8.84222 3.45757C9.86451 2.43528 11.522 2.43528 12.5443 3.45757C13.5665 4.47986 13.5665 6.13732 12.5443 7.1596L10.525 9.17883Z" fill="currentColor"/>
<path fill-rule="evenodd" clip-rule="evenodd" d="M10.4399 5.56082C10.6722 5.79316 10.6722 6.16985 10.4399 6.40219L6.40132 10.4408C6.16898 10.6731 5.79229 10.6731 5.55995 10.4408C5.32761 10.2084 5.32761 9.83174 5.55995 9.5994L9.59853 5.56082C9.83087 5.32848 10.2076 5.32848 10.4399 5.56082Z" fill="currentColor"/>
</svg>
