<svg width="16" height="16" viewBox="0 0 16 16" fill="none" xmlns="http://www.w3.org/2000/svg">
<path d="M6 3.49234C6 2.392 6.89543 1.5 8 1.5C9.10457 1.5 10 2.392 10 3.49234V8.47318C10 9.57352 9.10457 10.4655 8 10.4655C6.89543 10.4655 6 9.57352 6 8.47318V3.49234Z" fill="currentColor"/>
<path d="M8.45 13.4042H11C11.3038 13.4042 11.55 13.6495 11.55 13.9521C11.55 14.2547 11.3038 14.5 11 14.5H5C4.69624 14.5 4.45 14.2547 4.45 13.9521C4.45 13.6495 4.69624 13.4042 5 13.4042H7.55V12.431C5.5527 12.1911 4 10.3734 4 8.16667V6.97893C4 6.70384 4.22386 6.48084 4.5 6.48084C4.77614 6.48084 5 6.70384 5 6.97893V8.16667C5 9.94413 6.34315 11.3851 8 11.3851C9.65686 11.3851 11 9.94414 11 8.16667V6.97893C11 6.70384 11.2239 6.48084 11.5 6.48084C11.7761 6.48084 12 6.70384 12 6.97893V8.16667C12 10.3734 10.4473 12.1911 8.45 12.431V13.4042Z" fill="currentColor"/>
</svg>
