<svg width="16" height="16" viewBox="0 0 16 16" fill="none" xmlns="http://www.w3.org/2000/svg">
<path fill-rule="evenodd" clip-rule="evenodd" d="M12 7C12 9.76142 9.76143 12 7.00001 12C4.23858 12 2 9.76142 2 7C2 4.23857 4.23858 2 7.00001 2C9.76143 2 12 4.23857 12 7ZM10.8744 11.5815C9.82909 12.4664 8.47686 13 7.00001 13C3.68629 13 1 10.3137 1 7C1 3.68629 3.68629 1 7.00001 1C10.3137 1 13 3.68629 13 7C13 8.47685 12.4664 9.82908 11.5815 10.8744L14.8536 14.1464C15.0488 14.3417 15.0488 14.6583 14.8536 14.8535C14.6583 15.0488 14.3417 15.0488 14.1465 14.8535L10.8744 11.5815Z" fill="currentColor"/>
</svg>
