<svg width="16" height="16" viewBox="0 0 16 16" fill="none" xmlns="http://www.w3.org/2000/svg">
<path d="M9.09966 4.62521L5.50298 6.68047C5.67877 6.88054 5.81525 7.11601 5.90034 7.3748L9.49703 5.31954C9.32123 5.11947 9.18475 4.884 9.09966 4.62521Z" fill="currentColor"/>
<path d="M5.90034 8.6252C5.81525 8.88399 5.67877 9.11946 5.50297 9.31954L9.09966 11.3748C9.18475 11.116 9.32123 10.8805 9.49703 10.6805L5.90034 8.6252Z" fill="currentColor"/>
<path fill-rule="evenodd" clip-rule="evenodd" d="M4 9C4.55228 9 5 8.55228 5 8C5 7.44772 4.55228 7 4 7C3.44772 7 3 7.44772 3 8C3 8.55228 3.44772 9 4 9ZM4 10C5.10457 10 6 9.10457 6 8C6 6.89543 5.10457 6 4 6C2.89543 6 2 6.89543 2 8C2 9.10457 2.89543 10 4 10Z" fill="currentColor"/>
<path fill-rule="evenodd" clip-rule="evenodd" d="M11 13C11.5523 13 12 12.5523 12 12C12 11.4477 11.5523 11 11 11C10.4477 11 10 11.4477 10 12C10 12.5523 10.4477 13 11 13ZM11 14C12.1046 14 13 13.1046 13 12C13 10.8954 12.1046 10 11 10C9.89543 10 9 10.8954 9 12C9 13.1046 9.89543 14 11 14Z" fill="currentColor"/>
<path fill-rule="evenodd" clip-rule="evenodd" d="M11 5C11.5523 5 12 4.55228 12 4C12 3.44772 11.5523 3 11 3C10.4477 3 10 3.44772 10 4C10 4.55228 10.4477 5 11 5ZM11 6C12.1046 6 13 5.10457 13 4C13 2.89543 12.1046 2 11 2C9.89543 2 9 2.89543 9 4C9 5.10457 9.89543 6 11 6Z" fill="currentColor"/>
</svg>
