<svg width="16" height="16" viewBox="0 0 16 16" fill="none" xmlns="http://www.w3.org/2000/svg">
<path d="M7.99567 4.50977C7.99567 4.23362 7.77181 4.00977 7.49567 4.00977C7.21952 4.00977 6.99567 4.23362 6.99567 4.50977L6.99567 9.00977H11.4957C11.7718 9.00977 11.9957 8.78591 11.9957 8.50977C11.9957 8.23362 11.7718 8.00977 11.4957 8.00977H7.99567L7.99567 4.50977Z" fill="currentColor"/>
<path fill-rule="evenodd" clip-rule="evenodd" d="M15 8C15 11.866 11.866 15 8 15C4.13401 15 1 11.866 1 8C1 4.13401 4.13401 1 8 1C11.866 1 15 4.13401 15 8ZM14 8C14 11.3137 11.3137 14 8 14C4.68629 14 2 11.3137 2 8C2 4.68629 4.68629 2 8 2C11.3137 2 14 4.68629 14 8Z" fill="currentColor"/>
</svg>
