<svg width="16" height="16" viewBox="0 0 16 16" fill="none" xmlns="http://www.w3.org/2000/svg">
<path fill-rule="evenodd" clip-rule="evenodd" d="M1 4C1 3.72386 1.22386 3.5 1.5 3.5H11C11.2761 3.5 11.5 3.72386 11.5 4V6.13841L14.2519 4.56588C14.4067 4.47745 14.5968 4.47808 14.751 4.56754C14.9051 4.65701 15 4.82176 15 5V11C15 11.1782 14.9051 11.343 14.751 11.4325C14.5968 11.5219 14.4067 11.5226 14.2519 11.4341L11.5 9.86159V12C11.5 12.2761 11.2761 12.5 11 12.5H1.5C1.22386 12.5 1 12.2761 1 12V4Z" fill="currentColor"/>
</svg>
